<svg width="38" height="30" viewBox="0 0 38 30" fill="none" xmlns="http://www.w3.org/2000/svg">
<path d="M13.1157 27.1639L12.8215 27.0922C12.5272 27.0205 12.3066 27.0205 12.3066 26.8054C12.3066 26.5903 12.5272 26.4469 12.895 26.4469C13.2628 26.4469 13.7042 26.5903 13.8513 26.7337L14.1455 26.2318C13.8513 26.0166 13.4099 25.9449 12.895 25.9449C12.0859 25.9449 11.6445 26.3035 11.6445 26.8771C11.6445 27.379 12.0123 27.6658 12.6744 27.7375L12.9686 27.8092C13.3364 27.8809 13.4835 27.9526 13.4835 28.096C13.4835 28.3111 13.2628 28.4545 12.7479 28.4545C12.3066 28.4545 11.9387 28.3111 11.7181 28.1677L11.4238 28.6696C11.7916 28.9564 12.233 29.0281 12.7479 29.0281C13.6306 29.0281 14.1455 28.5979 14.1455 28.0243C14.2191 27.5224 13.7777 27.3073 13.1157 27.1639Z" fill="#252531"/>
<path d="M16.4266 28.4544C16.0588 28.4544 15.9852 28.2393 15.9852 27.9525V26.5902H17.0886V26.0166H15.9852V25.0845H15.3232V26.0166H14.6611V26.5902H15.3232V27.9525C15.3232 28.6695 15.6174 29.028 16.4266 29.028C16.7208 29.028 17.0886 28.9563 17.2357 28.8129L17.0151 28.2393C16.7944 28.3827 16.5737 28.4544 16.4266 28.4544Z" fill="#252531"/>
<path d="M10.0997 26.3752C9.87902 26.0884 9.58476 25.9449 9.1434 25.9449C8.26066 25.9449 7.59863 26.5903 7.59863 27.5224C7.59863 28.4545 8.26066 29.0998 9.1434 29.0998C9.58476 29.0998 9.87902 28.9564 10.0997 28.6696V29.0281H10.7617V27.5224V26.0166H10.0997V26.3752ZM9.21696 28.4545C8.62847 28.4545 8.26068 28.0243 8.26068 27.5224C8.26068 27.0205 8.62847 26.5903 9.21696 26.5903C9.80545 26.5903 10.1733 27.0205 10.1733 27.5224C10.1733 28.0243 9.80545 28.4545 9.21696 28.4545Z" fill="#252531"/>
<path d="M5.8333 25.9449C5.4655 25.9449 5.02413 26.0883 4.72989 26.4469C4.50921 26.0883 4.21497 25.9449 3.70005 25.9449C3.40581 25.9449 3.03802 26.0166 2.81734 26.3752V26.0166H2.15527V29.0281H2.81734V27.3073C2.81734 26.8054 3.11158 26.5186 3.55294 26.5186C3.9943 26.5186 4.21498 26.8054 4.21498 27.3073V28.9564H4.87702V27.3073C4.87702 26.8054 5.17126 26.5186 5.61263 26.5186C6.05399 26.5186 6.27467 26.8054 6.27467 27.3073V28.9564H6.93671V27.0922C7.01027 26.3752 6.56891 25.9449 5.8333 25.9449Z" fill="#252531"/>
<path d="M31.3593 26.3751V26.0166H30.6973V29.0281H31.3593V27.3073C31.3593 26.8053 31.58 26.5185 32.0213 26.5185C32.1684 26.5185 32.3155 26.5185 32.4627 26.5902L32.6833 25.9449C32.5362 25.8732 32.3155 25.8732 32.1684 25.8732C31.7271 25.9449 31.5064 26.0883 31.3593 26.3751Z" fill="#252531"/>
<path d="M19.1483 25.9449C18.2656 25.9449 17.6035 26.5903 17.6035 27.5224C17.6035 28.4545 18.2656 29.0998 19.2219 29.0998C19.6633 29.0998 20.1046 28.9564 20.4725 28.6696L20.1782 28.1677C19.8839 28.3828 19.5897 28.4545 19.2955 28.4545C18.8541 28.4545 18.4863 28.2394 18.3391 27.7375H20.6196C20.6196 27.6658 20.6196 27.5941 20.6196 27.5224C20.6196 26.5186 20.0311 25.9449 19.1483 25.9449ZM18.3391 27.2356C18.4127 26.8054 18.707 26.5186 19.1483 26.5186C19.5897 26.5186 19.884 26.8054 19.9575 27.2356H18.3391Z" fill="#252531"/>
<path d="M29.0782 26.3752C28.8575 26.0884 28.5633 25.9449 28.1219 25.9449C27.2392 25.9449 26.5771 26.5903 26.5771 27.5224C26.5771 28.4545 27.2392 29.0998 28.1219 29.0998C28.5633 29.0998 28.8575 28.9564 29.0782 28.6696V29.0281H29.7402V27.5224V26.0166H29.0782V26.3752ZM28.1955 28.4545C27.607 28.4545 27.2392 28.0243 27.2392 27.5224C27.2392 27.0205 27.607 26.5903 28.1955 26.5903C28.7839 26.5903 29.1517 27.0205 29.1517 27.5224C29.1517 28.0243 28.7839 28.4545 28.1955 28.4545Z" fill="#252531"/>
<path d="M35.3311 26.3751C35.1104 26.0883 34.8162 25.9449 34.3748 25.9449C33.4921 25.9449 32.8301 26.5902 32.8301 27.5223C32.8301 28.4544 33.4921 29.0997 34.3748 29.0997C34.8162 29.0997 35.1104 28.9563 35.3311 28.6695V29.028H35.9932V27.5223V24.7977H35.3311V26.3751ZM34.4484 28.4544C33.8599 28.4544 33.4921 28.0242 33.4921 27.5223C33.4921 27.0204 33.8599 26.5902 34.4484 26.5902C35.0369 26.5902 35.4047 27.0204 35.4047 27.5223C35.4047 28.0242 35.0369 28.4544 34.4484 28.4544Z" fill="#252531"/>
<path d="M25.1066 26.5186C25.4008 26.5186 25.6951 26.5903 25.9157 26.8054L26.21 26.3035C25.8422 26.0166 25.5479 25.9449 25.1066 25.9449C24.0768 25.9449 23.4883 26.5903 23.4883 27.5224C23.4883 28.4545 24.1503 29.0998 25.1066 29.0998C25.5479 29.0998 25.9157 29.0281 26.21 28.7413L25.9157 28.2394C25.6951 28.3828 25.4008 28.5262 25.1066 28.5262C24.5917 28.5262 24.1503 28.1677 24.1503 27.5941C24.1503 27.0205 24.5917 26.5186 25.1066 26.5186Z" fill="#252531"/>
<path d="M22.0165 26.3751V26.0166H21.3545V29.0281H22.0165V27.3073C22.0165 26.8053 22.2372 26.5185 22.6785 26.5185C22.8256 26.5185 22.9727 26.5185 23.1199 26.5902L23.3405 25.9449C23.1934 25.8732 22.9728 25.8732 22.8256 25.8732C22.3843 25.9449 22.1636 26.0883 22.0165 26.3751Z" fill="#252531"/>
<path d="M14.5869 12.0349C14.5869 15.6199 16.3524 18.8465 19.0005 20.9258C21.7223 18.8465 23.4142 15.6916 23.4142 12.0349C23.4142 8.3781 21.6487 5.22325 19.0005 3.14392C16.3524 5.22325 14.5869 8.4498 14.5869 12.0349Z" fill="#252531"/>
<path d="M24.5913 12.0349C24.5913 15.7634 22.8994 19.205 19.957 21.4994C21.796 22.6467 23.9293 23.292 26.2097 23.292C32.6094 23.292 37.8322 18.2729 37.8322 12.0349C37.8322 5.79691 32.683 0.777832 26.2097 0.777832C23.9293 0.777832 21.7225 1.42314 19.957 2.57036C22.8994 4.93649 24.5913 8.37814 24.5913 12.0349Z" fill="#252531"/>
<path d="M11.8655 23.292C14.1459 23.292 16.3527 22.6467 18.1181 21.4994C15.1757 19.1333 13.4838 15.6917 13.4838 12.0349C13.4838 8.30644 15.1757 4.86479 18.1181 2.57036C16.2791 1.42314 14.1459 0.777832 11.8655 0.777832C5.46574 0.777832 0.242955 5.79691 0.242955 12.0349C0.169395 18.2729 5.39218 23.292 11.8655 23.292Z" fill="#252531"/>
</svg>
