<svg width="59" height="18" viewBox="0 0 59 18" fill="none" xmlns="http://www.w3.org/2000/svg">
<path d="M32.7347 2.52161L29.0567 10.4087H28.6889V0.800781H23.3926V17.0769H27.8797C29.0567 17.0769 30.1601 16.4316 30.6015 15.3561L34.2795 7.46898H34.6473V17.0769H39.9436V0.800781H35.4564C34.2795 0.800781 33.2496 1.44609 32.7347 2.52161Z" fill="#252531"/>
<path d="M12.9466 2.95181L10.7398 10.4087H10.372L8.16518 2.95181C7.79738 1.66119 6.62042 0.800781 5.29633 0.800781H0V17.0052H5.29633V7.46898H5.66414L8.68011 17.0769H12.4317L15.4476 7.46898H15.8155V17.0052H21.1118V0.800781H15.8155C14.4914 0.800781 13.3144 1.66119 12.9466 2.95181Z" fill="#252531"/>
<path d="M42.224 17.0769H47.4467V11.9144H53.1109C55.5384 11.9144 57.6717 10.4087 58.4073 8.18597H42.1504V17.0769H42.224Z" fill="#252531"/>
<path d="M53.1101 0.800781H41.4141C42.1497 4.60094 45.4599 7.46898 49.5793 7.46898H58.6272C58.7007 7.11048 58.7007 6.75197 58.7007 6.39347C58.7743 3.31032 56.1997 0.800781 53.1101 0.800781Z" fill="#252531"/>
</svg>
