<svg width="54" height="18" viewBox="0 0 54 18" fill="none" xmlns="http://www.w3.org/2000/svg">
<path d="M22.1023 1.08759L19.4541 16.7901H23.7206L26.3688 1.08759H22.1023Z" fill="#252531"/>
<path d="M34.9015 7.39728C33.4303 6.68027 32.474 6.17836 32.474 5.46135C32.474 4.81604 33.2096 4.09903 34.9015 4.09903C36.2991 4.09903 37.3289 4.38583 38.0645 4.67264L38.4323 4.81604L39.0208 1.44609C38.2117 1.15929 36.8876 0.800781 35.1957 0.800781C31.0028 0.800781 28.0604 2.95181 28.0604 6.03496C28.0604 8.32939 30.1936 9.54831 31.8119 10.337C33.4303 11.1257 34.0187 11.6276 34.0187 12.2729C34.0187 13.3485 32.6947 13.7787 31.4441 13.7787C29.7522 13.7787 28.8695 13.5636 27.4719 12.9183L26.8834 12.6315L26.2949 16.1448C27.3248 16.575 29.0902 16.9335 31.0028 17.0052C35.49 17.0052 38.3588 14.9259 38.4323 11.6276C38.5059 9.90681 37.4025 8.47279 34.9015 7.39728Z" fill="#252531"/>
<path d="M49.9818 1.08759H46.6716C45.6418 1.08759 44.9062 1.37439 44.4648 2.37821L38.1387 16.7901H42.6258C42.6258 16.7901 43.3614 14.8542 43.5086 14.424C44.0235 14.424 48.3635 14.424 48.952 14.424C49.0991 14.9976 49.4669 16.7901 49.4669 16.7901H53.3656L49.9818 1.08759ZM44.7591 11.2691C45.1269 10.337 46.451 6.89537 46.451 6.89537C46.451 6.89537 46.8188 5.96326 47.0394 5.38965L47.3337 6.75197C47.3337 6.75197 48.1428 10.5521 48.29 11.3408C47.6279 11.2691 45.5682 11.2691 44.7591 11.2691Z" fill="#252531"/>
<path d="M15.923 1.08759L11.7301 11.8427L11.2887 9.69171L9.81748 2.44991C9.5968 1.44609 8.78763 1.15929 7.90491 1.15929H1.0638L0.990234 1.44609C2.68212 1.8763 4.15334 2.44991 5.47742 3.16692L9.22901 16.8618H13.7162L20.4102 1.15929H15.923V1.08759Z" fill="#252531"/>
</svg>
