<svg viewBox="0 0 20 20" fill="none" xmlns="http://www.w3.org/2000/svg">
<path d="M16.8754 16.8755H3.12537" stroke="currentColor" stroke-linecap="round" stroke-linejoin="round"/>
<path d="M11.25 6.25V13.75C11.25 14.0952 11.5298 14.375 11.875 14.375H15C15.3452 14.375 15.625 14.0952 15.625 13.75V6.25C15.625 5.90482 15.3452 5.625 15 5.625H11.875C11.5298 5.625 11.25 5.90482 11.25 6.25Z" stroke="currentColor" stroke-linecap="round" stroke-linejoin="round"/>
<path d="M8.125 2.5H5C4.65482 2.5 4.375 2.77982 4.375 3.125V13.75C4.375 14.0952 4.65482 14.375 5 14.375H8.125C8.47018 14.375 8.75 14.0952 8.75 13.75V3.125C8.75 2.77982 8.47018 2.5 8.125 2.5Z" stroke="currentColor" stroke-linecap="round" stroke-linejoin="round"/>
</svg>
