<svg viewBox="0 0 28 28" fill="none" xmlns="http://www.w3.org/2000/svg">
<path vector-effect="non-scaling-stroke" d="M24.5 8.16683V19.8335C24.5 23.3335 22.75 25.6668 18.6667 25.6668H9.33333C5.25 25.6668 3.5 23.3335 3.5 19.8335V8.16683C3.5 4.66683 5.25 2.3335 9.33333 2.3335H18.6667C22.75 2.3335 24.5 4.66683 24.5 8.16683Z" stroke="currentColor" stroke-width="1.5" stroke-miterlimit="10" stroke-linecap="round" stroke-linejoin="round"/>
<path vector-effect="non-scaling-stroke" d="M18.0837 2.3335V11.5035C18.0837 12.0168 17.477 12.2735 17.1036 11.9351L14.397 9.43853C14.1754 9.22853 13.8253 9.22853 13.6036 9.43853L10.897 11.9351C10.5237 12.2735 9.91699 12.0168 9.91699 11.5035V2.3335H18.0837Z" stroke="currentColor" stroke-width="1.5" stroke-miterlimit="10" stroke-linecap="round" stroke-linejoin="round"/>
<path vector-effect="non-scaling-stroke" d="M15.458 16.3335H20.4163" stroke="currentColor" stroke-width="1.5" stroke-miterlimit="10" stroke-linecap="round" stroke-linejoin="round"/>
<path vector-effect="non-scaling-stroke" d="M10.5 21H20.4167" stroke="currentColor" stroke-width="1.5" stroke-miterlimit="10" stroke-linecap="round" stroke-linejoin="round"/>
</svg>
