<svg  viewBox="0 0 14 14" fill="none" xmlns="http://www.w3.org/2000/svg">
<path vector-effect="non-scaling-stroke" d="M12.8333 10.0833V11.8333H1.16666V10.0833C1.16666 9.7625 1.42916 9.5 1.74999 9.5H12.25C12.5708 9.5 12.8333 9.7625 12.8333 10.0833Z" fill="currentColor" stroke="currentColor" stroke-width="1.5" stroke-miterlimit="10" stroke-linecap="round" stroke-linejoin="round"/>
<path vector-effect="non-scaling-stroke" d="M4.08332 5.41675H2.91666V9.50008H4.08332V5.41675Z" fill="currentColor"/>
<path vector-effect="non-scaling-stroke" d="M6.41667 5.41675H5.25V9.50008H6.41667V5.41675Z" fill="currentColor"/>
<path vector-effect="non-scaling-stroke" d="M8.75001 5.41675H7.58334V9.50008H8.75001V5.41675Z" fill="currentColor"/>
<path vector-effect="non-scaling-stroke" d="M11.0833 5.41675H9.91666V9.50008H11.0833V5.41675Z" fill="currentColor"/>
<path vector-effect="non-scaling-stroke" d="M13.4167 12.2708H0.583344C0.344177 12.2708 0.145844 12.0724 0.145844 11.8333C0.145844 11.5941 0.344177 11.3958 0.583344 11.3958H13.4167C13.6558 11.3958 13.8542 11.5941 13.8542 11.8333C13.8542 12.0724 13.6558 12.2708 13.4167 12.2708Z" fill="currentColor"/>
<path vector-effect="non-scaling-stroke" d="M12.4658 2.35424L7.21582 0.254238C7.09916 0.207572 6.90082 0.207572 6.78416 0.254238L1.53416 2.35424C1.32999 2.4359 1.16666 2.67507 1.16666 2.89674V4.8334C1.16666 5.15424 1.42916 5.41674 1.74999 5.41674H12.25C12.5708 5.41674 12.8333 5.15424 12.8333 4.8334V2.89674C12.8333 2.67507 12.67 2.4359 12.4658 2.35424ZM6.99999 3.9584C6.51582 3.9584 6.12499 3.56757 6.12499 3.0834C6.12499 2.59924 6.51582 2.2084 6.99999 2.2084C7.48416 2.2084 7.87499 2.59924 7.87499 3.0834C7.87499 3.56757 7.48416 3.9584 6.99999 3.9584Z" fill="currentColor"/>
</svg>
