<svg viewBox="0 0 54 54" fill="none" xmlns="http://www.w3.org/2000/svg">
<path vector-effect="non-scaling-stroke" d="M51.75 35.9326C51.75 44.6401 44.7075 51.6826 36 51.6826L38.3625 47.7451" stroke="currentColor" stroke-width="1.5" stroke-linecap="round" stroke-linejoin="round"/>
<path vector-effect="non-scaling-stroke" d="M2.25 17.9326C2.25 9.22512 9.2925 2.18262 18 2.18262L15.6375 6.12012" stroke="currentColor" stroke-width="1.5" stroke-linecap="round" stroke-linejoin="round"/>
<path vector-effect="non-scaling-stroke" d="M14.8945 29.4077H21.217C22.612 29.4077 23.7595 30.6677 23.7595 31.9502C23.7595 33.3452 22.6345 34.4927 21.217 34.4927H14.8945V29.4077Z" stroke="currentColor" stroke-width="1.5" stroke-miterlimit="10" stroke-linecap="round" stroke-linejoin="round"/>
<path vector-effect="non-scaling-stroke" d="M14.8945 34.4927H22.1395C23.737 34.4927 25.042 35.6177 25.042 37.0352C25.042 38.4302 23.737 39.5777 22.1395 39.5777H14.8945V34.4927Z" stroke="currentColor" stroke-width="1.5" stroke-miterlimit="10" stroke-linecap="round" stroke-linejoin="round"/>
<path vector-effect="non-scaling-stroke" d="M18.9443 39.5552V42.0752" stroke="currentColor" stroke-width="1.5" stroke-miterlimit="10" stroke-linecap="round" stroke-linejoin="round"/>
<path vector-effect="non-scaling-stroke" d="M18.9443 26.8877V29.4077" stroke="currentColor" stroke-width="1.5" stroke-miterlimit="10" stroke-linecap="round" stroke-linejoin="round"/>
<path vector-effect="non-scaling-stroke" d="M33.4125 34.4925C33.4125 42.165 27.2025 48.3749 19.53 48.3749C11.8575 48.3749 5.64746 42.165 5.64746 34.4925C5.64746 26.82 11.8575 20.6099 19.53 20.6099C19.89 20.6099 20.2275 20.6324 20.61 20.6549C27.4275 21.1724 32.8725 26.6174 33.39 33.4349C33.39 33.7724 33.4125 34.11 33.4125 34.4925Z" stroke="currentColor" stroke-width="1.5" stroke-miterlimit="10" stroke-linecap="round" stroke-linejoin="round"/>
<path vector-effect="non-scaling-stroke" d="M48.3754 19.5075C48.3754 27.18 42.1654 33.3901 34.4929 33.3901H33.3904C32.8729 26.5726 27.4279 21.1274 20.6104 20.6099V19.5075C20.6104 11.835 26.8204 5.625 34.4929 5.625C42.1654 5.625 48.3754 11.835 48.3754 19.5075Z" stroke="currentColor" stroke-width="1.5" stroke-miterlimit="10" stroke-linecap="round" stroke-linejoin="round"/>
</svg>
