<svg viewBox="0 0 14 14" fill="none" xmlns="http://www.w3.org/2000/svg">
<path d="M7.8575 4.32253L9.2925 3.61669C9.4675 3.52919 9.51417 3.30169 9.38 3.16169C8.86083 2.59003 8.33583 2.11169 7.91583 1.75003C7.72333 1.58669 7.4375 1.72086 7.4375 1.97169V4.06003C7.4375 4.27586 7.665 4.41586 7.8575 4.32253Z" fill="currentColor"/>
<path d="M7.4375 11.515V12.4775C7.4375 12.6525 7.595 12.7983 7.77 12.7691C9.3625 12.5066 10.6925 11.4391 11.3225 10.0041C11.4333 9.75913 11.165 9.51413 10.92 9.63079L7.60083 11.2583C7.50167 11.305 7.4375 11.4041 7.4375 11.515Z" fill="currentColor"/>
<path d="M6.56251 1.96003C6.56251 1.7092 6.27667 1.57503 6.08417 1.73253C4.70751 2.88753 2.26334 5.32003 2.275 8.10836C2.275 10.4534 3.99001 12.3959 6.23001 12.7692C6.40501 12.7984 6.56251 12.6525 6.56251 12.4775V1.96003Z" fill="currentColor"/>
<path d="M7.84 7.27413L10.9258 5.97913C11.0833 5.90913 11.1592 5.7283 11.0833 5.57663C10.8675 5.1508 10.6167 4.73663 10.3425 4.35163C10.2608 4.23497 10.1092 4.19997 9.98084 4.2583L7.595 5.41913C7.49584 5.4658 7.43167 5.5708 7.43167 5.68163V7.0058C7.4375 7.20997 7.6475 7.3558 7.84 7.27413Z" fill="currentColor"/>
<path d="M11.5675 8.34746C11.6608 8.30079 11.7192 8.21329 11.7192 8.11413C11.7192 7.74079 11.6725 7.37329 11.5908 7.01163C11.55 6.83663 11.3575 6.74329 11.1942 6.81329L7.6125 8.34163C7.5075 8.38829 7.4375 8.49329 7.4375 8.60996V9.89329C7.4375 10.1091 7.665 10.2491 7.8575 10.1558L11.2992 8.48163L11.5675 8.34746Z" fill="currentColor"/>
</svg>
