<svg viewBox="0 0 54 54" fill="none" xmlns="http://www.w3.org/2000/svg">
<path vector-effect="non-scaling-stroke" d="M17.9999 49.5H35.9999C45.0449 49.5 46.6649 45.8775 47.1374 41.4675L48.8249 23.4675C49.4324 17.9775 47.8574 13.5 38.2499 13.5H15.7499C6.14235 13.5 4.56735 17.9775 5.17485 23.4675L6.86235 41.4675C7.33485 45.8775 8.95485 49.5 17.9999 49.5Z" stroke="currentColor" stroke-width="1.5" stroke-miterlimit="10" stroke-linecap="round" stroke-linejoin="round"/>
<path vector-effect="non-scaling-stroke" d="M18 13.5V11.7C18 7.7175 18 4.5 25.2 4.5H28.8C36 4.5 36 7.7175 36 11.7V13.5" stroke="currentColor" stroke-width="1.5" stroke-miterlimit="10" stroke-linecap="round" stroke-linejoin="round"/>
<path vector-effect="non-scaling-stroke" d="M31.5 29.25V31.5C31.5 31.5225 31.5 31.5225 31.5 31.545C31.5 33.9975 31.4775 36 27 36C22.545 36 22.5 34.02 22.5 31.5675V29.25C22.5 27 22.5 27 24.75 27H29.25C31.5 27 31.5 27 31.5 29.25Z" stroke="currentColor" stroke-width="1.5" stroke-miterlimit="10" stroke-linecap="round" stroke-linejoin="round"/>
<path vector-effect="non-scaling-stroke" d="M48.7125 24.75C43.515 28.53 37.575 30.78 31.5 31.545" stroke="currentColor" stroke-width="1.5" stroke-miterlimit="10" stroke-linecap="round" stroke-linejoin="round"/>
<path vector-effect="non-scaling-stroke" d="M5.89453 25.3574C10.957 28.8224 16.672 30.9149 22.4995 31.5674" stroke="currentColor" stroke-width="1.5" stroke-miterlimit="10" stroke-linecap="round" stroke-linejoin="round"/>
</svg>
