<svg  viewBox="0 0 54 54" fill="none" xmlns="http://www.w3.org/2000/svg">
<path vector-effect="non-scaling-stroke" d="M4.5 49.5H49.5" stroke="currentColor" stroke-width="1.5" stroke-miterlimit="10" stroke-linecap="round" stroke-linejoin="round"/>
<path vector-effect="non-scaling-stroke" d="M33.7725 49.4774L6.77252 49.5224L6.75 15.9074C6.75 14.3999 7.51503 13.0049 8.75253 12.1724L17.7525 6.16489C19.26 5.15239 21.24 5.15239 22.7475 6.16489L31.7475 12.1724C33.0075 13.0049 33.75 14.3999 33.75 15.9074L33.7725 49.4774Z" stroke="currentColor" stroke-width="1.5" stroke-miterlimit="10" stroke-linecap="round" stroke-linejoin="round"/>
<path vector-effect="non-scaling-stroke" d="M44.9551 49.5225V40.5" stroke="currentColor" stroke-width="1.5" stroke-miterlimit="10" stroke-linecap="round" stroke-linejoin="round"/>
<path vector-effect="non-scaling-stroke" d="M45 27C42.525 27 40.5 29.025 40.5 31.5V36C40.5 38.475 42.525 40.5 45 40.5C47.475 40.5 49.5 38.475 49.5 36V31.5C49.5 29.025 47.475 27 45 27Z" stroke="currentColor" stroke-width="1.5" stroke-miterlimit="10" stroke-linecap="round" stroke-linejoin="round"/>
<path vector-effect="non-scaling-stroke" d="M6.75 31.5H33.75" stroke="currentColor" stroke-width="1.5" stroke-miterlimit="10" stroke-linecap="round" stroke-linejoin="round"/>
<path vector-effect="non-scaling-stroke" d="M20.25 49.5V41.0625" stroke="currentColor" stroke-width="1.5" stroke-miterlimit="10" stroke-linecap="round" stroke-linejoin="round"/>
<path vector-effect="non-scaling-stroke" d="M20.25 23.625C22.114 23.625 23.625 22.114 23.625 20.25C23.625 18.386 22.114 16.875 20.25 16.875C18.386 16.875 16.875 18.386 16.875 20.25C16.875 22.114 18.386 23.625 20.25 23.625Z" stroke="currentColor" stroke-width="1.5" stroke-miterlimit="10" stroke-linecap="round" stroke-linejoin="round"/>
</svg>
