<svg  viewBox="0 0 54 54" fill="none" xmlns="http://www.w3.org/2000/svg">
<path vector-effect="non-scaling-stroke" d="M28.1249 49.5003H9.17987C6.56987 49.5003 4.43237 47.4078 4.43237 44.8428V11.4528C4.43237 5.5578 8.81987 2.8803 14.1974 5.5128L24.1874 10.4178C26.3474 11.4753 28.1249 14.2878 28.1249 16.6728V49.5003Z" stroke="currentColor" stroke-width="1.5" stroke-linecap="round" stroke-linejoin="round"/>
<path vector-effect="non-scaling-stroke" d="M49.4325 33.8853V42.3903C49.4325 47.2503 47.1825 49.5003 42.3225 49.5003H28.125V23.4453L29.1825 23.6703L39.3075 25.9428L43.875 26.9553C46.845 27.6078 49.275 29.1378 49.41 33.4578C49.4325 33.5928 49.4325 33.7278 49.4325 33.8853Z" stroke="currentColor" stroke-width="1.5" stroke-linecap="round" stroke-linejoin="round"/>
<path vector-effect="non-scaling-stroke" d="M12.375 20.25H20.1825" stroke="currentColor" stroke-width="1.5" stroke-linecap="round" stroke-linejoin="round"/>
<path vector-effect="non-scaling-stroke" d="M12.375 29.25H20.1825" stroke="currentColor" stroke-width="1.5" stroke-linecap="round" stroke-linejoin="round"/>
<path vector-effect="non-scaling-stroke" d="M39.3074 25.9429V33.1879C39.3074 35.9779 37.0349 38.2504 34.2449 38.2504C31.4549 38.2504 29.1824 35.9779 29.1824 33.1879V23.6704L39.3074 25.9429Z" stroke="currentColor" stroke-width="1.5" stroke-linecap="round" stroke-linejoin="round"/>
<path vector-effect="non-scaling-stroke" d="M49.4099 33.4579C49.2749 36.1129 47.0699 38.2504 44.3699 38.2504C41.5799 38.2504 39.3074 35.9779 39.3074 33.1879V25.9429L43.8749 26.9554C46.8449 27.6079 49.2749 29.1379 49.4099 33.4579Z" stroke="currentColor" stroke-width="1.5" stroke-linecap="round" stroke-linejoin="round"/>
</svg>
