<svg viewBox="0 0 54 54" fill="none" xmlns="http://www.w3.org/2000/svg">
<path vector-effect="non-scaling-stroke" d="M22.5 49.5H31.5C42.75 49.5 47.25 45 47.25 33.75V20.25C47.25 9 42.75 4.5 31.5 4.5H22.5C11.25 4.5 6.75 9 6.75 20.25V33.75C6.75 45 11.25 49.5 22.5 49.5Z" stroke="currentColor" stroke-width="1.5" stroke-linecap="round" stroke-linejoin="round"/>
<path vector-effect="non-scaling-stroke" d="M37.125 17.0549V19.3049C37.125 21.1499 35.6175 22.6799 33.75 22.6799H20.25C18.405 22.6799 16.875 21.1724 16.875 19.3049V17.0549C16.875 15.2099 18.3825 13.6799 20.25 13.6799H33.75C35.6175 13.6799 37.125 15.1874 37.125 17.0549Z" stroke="currentColor" stroke-width="1.5" stroke-linecap="round" stroke-linejoin="round"/>
<path vector-effect="non-scaling-stroke" d="M18.3063 31.5H18.3323" stroke="currentColor" stroke-width="2" stroke-linecap="round" stroke-linejoin="round"/>
<path vector-effect="non-scaling-stroke" d="M26.9894 31.5H27.0154" stroke="currentColor" stroke-width="2" stroke-linecap="round" stroke-linejoin="round"/>
<path vector-effect="non-scaling-stroke" d="M35.6725 31.5H35.6985" stroke="currentColor" stroke-width="2" stroke-linecap="round" stroke-linejoin="round"/>
<path vector-effect="non-scaling-stroke" d="M18.3063 39.375H18.3323" stroke="currentColor" stroke-width="2" stroke-linecap="round" stroke-linejoin="round"/>
<path vector-effect="non-scaling-stroke" d="M26.9894 39.375H27.0154" stroke="currentColor" stroke-width="2" stroke-linecap="round" stroke-linejoin="round"/>
<path vector-effect="non-scaling-stroke" d="M35.6725 39.375H35.6985" stroke="currentColor" stroke-width="2" stroke-linecap="round" stroke-linejoin="round"/>
</svg>
