<svg viewBox="0 0 64 64" fill="none" xmlns="http://www.w3.org/2000/svg">
<path vector-effect="non-scaling-stroke" d="M21.334 5.33325V13.3333" stroke="currentColor" stroke-width="1.5" stroke-miterlimit="10" stroke-linecap="round" stroke-linejoin="round"/>
<path vector-effect="non-scaling-stroke" d="M42.666 5.33325V13.3333" stroke="currentColor" stroke-width="1.5" stroke-miterlimit="10" stroke-linecap="round" stroke-linejoin="round"/>
<path vector-effect="non-scaling-stroke" d="M9.33398 24.24H54.6673" stroke="currentColor" stroke-width="1.5" stroke-miterlimit="10" stroke-linecap="round" stroke-linejoin="round"/>
<path vector-effect="non-scaling-stroke" d="M48.0007 61.3333C53.8917 61.3333 58.6673 56.5577 58.6673 50.6667C58.6673 44.7756 53.8917 40 48.0007 40C42.1096 40 37.334 44.7756 37.334 50.6667C37.334 56.5577 42.1096 61.3333 48.0007 61.3333Z" stroke="currentColor" stroke-width="1.5" stroke-miterlimit="10" stroke-linecap="round" stroke-linejoin="round"/>
<path vector-effect="non-scaling-stroke" d="M51.974 50.8H44.0273" stroke="currentColor" stroke-width="1.5" stroke-miterlimit="10" stroke-linecap="round" stroke-linejoin="round"/>
<path vector-effect="non-scaling-stroke" d="M48 46.9067V54.88" stroke="currentColor" stroke-width="1.5" stroke-miterlimit="10" stroke-linecap="round" stroke-linejoin="round"/>
<path vector-effect="non-scaling-stroke" d="M56 22.6666V43.6265C54.0533 41.4132 51.2 39.9999 48 39.9999C42.1067 39.9999 37.3333 44.7732 37.3333 50.6666C37.3333 52.6666 37.8933 54.5599 38.88 56.1599C39.44 57.1199 40.16 57.9732 40.9867 58.6666H21.3333C12 58.6666 8 53.3332 8 45.3332V22.6666C8 14.6666 12 9.33325 21.3333 9.33325H42.6667C52 9.33325 56 14.6666 56 22.6666Z" stroke="currentColor" stroke-width="1.5" stroke-miterlimit="10" stroke-linecap="round" stroke-linejoin="round"/>
<path vector-effect="non-scaling-stroke" d="M31.9886 36.5333H32.0126" stroke="currentColor" stroke-width="2" stroke-linecap="round" stroke-linejoin="round"/>
<path vector-effect="non-scaling-stroke" d="M22.1175 36.5333H22.1415" stroke="currentColor" stroke-width="2" stroke-linecap="round" stroke-linejoin="round"/>
<path vector-effect="non-scaling-stroke" d="M22.1175 44.5333H22.1415" stroke="currentColor" stroke-width="2" stroke-linecap="round" stroke-linejoin="round"/>
</svg>
