<svg  viewBox="0 0 64 64" fill="none" xmlns="http://www.w3.org/2000/svg">
<path vector-effect="non-scaling-stroke" d="M58.5863 48.8802C58.5863 49.8402 58.373 50.8268 57.9197 51.7868C57.4663 52.7468 56.8797 53.6535 56.1063 54.5068C54.7997 55.9468 53.3597 56.9868 51.733 57.6535C50.133 58.3202 48.3997 58.6668 46.533 58.6668C43.813 58.6668 40.9063 58.0268 37.8397 56.7202C34.773 55.4135 31.7063 53.6535 28.6663 51.4402C25.5997 49.2002 22.693 46.7202 19.9197 43.9735C17.173 41.2002 14.693 38.2935 12.4797 35.2535C10.293 32.2135 8.53301 29.1735 7.25301 26.1602C5.97301 23.1202 5.33301 20.2135 5.33301 17.4402C5.33301 15.6268 5.65301 13.8935 6.29301 12.2935C6.93301 10.6668 7.94634 9.1735 9.35967 7.84016C11.0663 6.16016 12.933 5.3335 14.9063 5.3335C15.653 5.3335 16.3997 5.4935 17.0663 5.8135C17.7597 6.1335 18.373 6.6135 18.853 7.30683L25.0397 16.0268C25.5197 16.6935 25.8663 17.3068 26.1063 17.8935C26.3463 18.4535 26.4797 19.0135 26.4797 19.5202C26.4797 20.1602 26.293 20.8002 25.9197 21.4135C25.573 22.0268 25.0663 22.6668 24.4263 23.3068L22.3997 25.4135C22.1063 25.7068 21.973 26.0535 21.973 26.4802C21.973 26.6935 21.9997 26.8802 22.053 27.0935C22.133 27.3068 22.213 27.4668 22.2663 27.6268C22.7463 28.5068 23.573 29.6535 24.7463 31.0402C25.9463 32.4268 27.2263 33.8402 28.613 35.2535C30.053 36.6668 31.4397 37.9735 32.853 39.1735C34.2397 40.3468 35.3863 41.1468 36.293 41.6268C36.4263 41.6802 36.5863 41.7602 36.773 41.8402C36.9863 41.9202 37.1997 41.9468 37.4397 41.9468C37.893 41.9468 38.2397 41.7868 38.533 41.4935L40.5597 39.4935C41.2263 38.8268 41.8663 38.3202 42.4797 38.0002C43.093 37.6268 43.7063 37.4402 44.373 37.4402C44.8797 37.4402 45.413 37.5468 45.9997 37.7868C46.5863 38.0268 47.1997 38.3735 47.8663 38.8268L56.693 45.0935C57.3863 45.5735 57.8663 46.1335 58.1597 46.8002C58.4263 47.4668 58.5863 48.1335 58.5863 48.8802Z" stroke="currentColor" stroke-width="1" stroke-miterlimit="10"/>
<path vector-effect="non-scaling-stroke" d="M49.3333 24.0003C49.3333 22.4003 48.08 19.947 46.2133 17.947C44.5067 16.107 42.24 14.667 40 14.667" stroke="currentColor" stroke-width="1" stroke-linecap="round" stroke-linejoin="round"/>
<path vector-effect="non-scaling-stroke" d="M58.6667 24.0002C58.6667 13.6802 50.32 5.3335 40 5.3335" stroke="currentColor" stroke-width="1" stroke-linecap="round" stroke-linejoin="round"/>
</svg>
