<svg viewBox="0 0 54 54" fill="none" xmlns="http://www.w3.org/2000/svg">
<path vector-effect="non-scaling-stroke" d="M34.8975 6.36743H19.1025C13.5 6.36743 12.2625 9.15743 11.5425 12.5774L9 24.7499H45L42.4575 12.5774C41.7375 9.15743 40.5 6.36743 34.8975 6.36743Z" stroke="currentColor" stroke-width="1.5" stroke-linecap="round" stroke-linejoin="round"/>
<path vector-effect="non-scaling-stroke" d="M49.4774 44.595C49.7249 47.2275 47.6099 49.5 44.9099 49.5H40.6799C38.2499 49.5 37.9124 48.465 37.4849 47.1825L37.0349 45.8325C36.4049 43.9875 35.9999 42.75 32.7599 42.75H21.2399C17.9999 42.75 17.5274 44.145 16.9649 45.8325L16.5149 47.1825C16.0874 48.465 15.7499 49.5 13.3199 49.5H9.0899C6.3899 49.5 4.2749 47.2275 4.5224 44.595L5.7824 30.8925C6.0974 27.5175 6.7499 24.75 12.6449 24.75H41.3549C47.2499 24.75 47.9024 27.5175 48.2174 30.8925L49.4774 44.595Z" stroke="currentColor" stroke-width="1.5" stroke-linecap="round" stroke-linejoin="round"/>
<path vector-effect="non-scaling-stroke" d="M9 18H6.75" stroke="currentColor" stroke-width="1.5" stroke-linecap="round" stroke-linejoin="round"/>
<path vector-effect="non-scaling-stroke" d="M47.25 18H45" stroke="currentColor" stroke-width="1.5" stroke-linecap="round" stroke-linejoin="round"/>
<path vector-effect="non-scaling-stroke" d="M27 6.75V11.25" stroke="currentColor" stroke-width="1.5" stroke-linecap="round" stroke-linejoin="round"/>
<path vector-effect="non-scaling-stroke" d="M23.625 11.25H30.375" stroke="currentColor" stroke-width="1.5" stroke-linecap="round" stroke-linejoin="round"/>
<path vector-effect="non-scaling-stroke" d="M13.5 33.75H20.25" stroke="currentColor" stroke-width="1.5" stroke-linecap="round" stroke-linejoin="round"/>
<path vector-effect="non-scaling-stroke" d="M33.75 33.75H40.5" stroke="currentColor" stroke-width="1.5" stroke-linecap="round" stroke-linejoin="round"/>
</svg>
