<svg viewBox="0 0 48 48" fill="none" xmlns="http://www.w3.org/2000/svg">
<path vector-effect="non-scaling-stroke" d="M4 20H44" stroke="currentColor" stroke-width="1" stroke-miterlimit="10" stroke-linecap="round" stroke-linejoin="round"/>
<path vector-effect="non-scaling-stroke" d="M23.0966 40.9995H12.8766C5.77659 40.9995 3.97656 39.2395 3.97656 32.2195V15.7795C3.97656 9.41954 5.45662 7.37954 11.0366 7.05954C11.5966 7.03954 12.2166 7.01953 12.8766 7.01953H35.0966C42.1966 7.01953 43.9966 8.77953 43.9966 15.7995V24.6195" stroke="currentColor" stroke-width="1" stroke-linecap="round" stroke-linejoin="round"/>
<path vector-effect="non-scaling-stroke" d="M12 32H20" stroke="currentColor" stroke-width="1" stroke-miterlimit="10" stroke-linecap="round" stroke-linejoin="round"/>
<path vector-effect="non-scaling-stroke" d="M44 36C44 37.5 43.58 38.92 42.84 40.12C41.46 42.44 38.92 44 36 44C33.08 44 30.54 42.44 29.16 40.12C28.42 38.92 28 37.5 28 36C28 31.58 31.58 28 36 28C40.42 28 44 31.58 44 36Z" stroke="currentColor" stroke-width="1" stroke-miterlimit="10" stroke-linecap="round" stroke-linejoin="round"/>
<path vector-effect="non-scaling-stroke" d="M32.8828 35.9991L34.8628 37.9791L39.1228 34.0391" stroke="currentColor" stroke-width="1" stroke-linecap="round" stroke-linejoin="round"/>
</svg>
