<svg viewBox="0 0 42 42" fill="none" xmlns="http://www.w3.org/2000/svg">
<path vector-effect="non-scaling-stroke" d="M21.6563 35.4363H7.82031C7.48672 35.4363 7.16679 35.3038 6.9309 35.0679C6.69502 34.832 6.5625 34.5121 6.5625 34.1785V20.3425C6.5625 18.3604 6.95291 16.3976 7.71144 14.5664C8.46997 12.7351 9.58177 11.0712 10.9833 9.66963C12.3849 8.26805 14.0488 7.15625 15.8801 6.39772C17.7114 5.63919 19.6741 5.24878 21.6562 5.24878H21.6562C23.6384 5.24878 25.6011 5.63919 27.4324 6.39772C29.2636 7.15625 30.9276 8.26805 32.3291 9.66964C33.7307 11.0712 34.8425 12.7351 35.6011 14.5664C36.3596 16.3977 36.75 18.3604 36.75 20.3425V20.3426C36.75 24.3457 35.1598 28.1848 32.3292 31.0154C29.4985 33.8461 25.6594 35.4363 21.6563 35.4363Z" stroke="currentColor" stroke-linecap="round" stroke-linejoin="round"/>
<path vector-effect="non-scaling-stroke" d="M16.4062 18.3738H26.25" stroke="currentColor" stroke-linecap="round" stroke-linejoin="round"/>
<path vector-effect="non-scaling-stroke" d="M16.4062 23.6238H26.25" stroke="currentColor" stroke-linecap="round" stroke-linejoin="round"/>
</svg>
