<svg viewBox="0 0 64 64" fill="none" xmlns="http://www.w3.org/2000/svg">
<path vector-effect="non-scaling-stroke" d="M10.6371 39.0943L6.58375 35.0409C4.93042 33.3876 4.93042 30.6676 6.58375 29.0143L10.6371 24.9609C11.3304 24.2675 11.8904 22.9075 11.8904 21.9475V16.2141C11.8904 13.8675 13.8104 11.9475 16.1571 11.9475H21.8904C22.8504 11.9475 24.2104 11.3876 24.9037 10.6943L28.957 6.64088C30.6104 4.98755 33.3304 4.98755 34.9837 6.64088L39.0371 10.6943C39.7305 11.3876 41.0904 11.9475 42.0504 11.9475H47.7838C50.1305 11.9475 52.0504 13.8675 52.0504 16.2141V21.9475C52.0504 22.9075 52.6104 24.2675 53.3037 24.9609L57.3571 29.0143C59.0104 30.6676 59.0104 33.3876 57.3571 35.0409L53.3037 39.0943C52.6104 39.7877 52.0504 41.1477 52.0504 42.1077V47.8407C52.0504 50.1874 50.1305 52.1077 47.7838 52.1077H42.0504C41.0904 52.1077 39.7305 52.6676 39.0371 53.3609L34.9837 57.4143C33.3304 59.0676 30.6104 59.0676 28.957 57.4143L24.9037 53.3609C24.2104 52.6676 22.8504 52.1077 21.8904 52.1077H16.1571C13.8104 52.1077 11.8904 50.1874 11.8904 47.8407V42.1077C11.8904 41.121 11.3304 39.761 10.6371 39.0943Z" stroke="currentColor" stroke-width="1" stroke-linecap="round" stroke-linejoin="round"/>
<path vector-effect="non-scaling-stroke" d="M24 40L40 24" stroke="currentColor" stroke-width="1" stroke-linecap="round" stroke-linejoin="round"/>
<path vector-effect="non-scaling-stroke" d="M38.6517 38.6668H38.6756" stroke="currentColor" stroke-width="1" stroke-linecap="round" stroke-linejoin="round"/>
<path vector-effect="non-scaling-stroke" d="M25.3187 25.3333H25.3426" stroke="currentColor" stroke-width="1" stroke-linecap="round" stroke-linejoin="round"/>
</svg>
