<svg viewBox="0 0 18 18" fill="none" xmlns="http://www.w3.org/2000/svg">
<path d="M9.25 17.5C13.8063 17.5 17.5 13.8063 17.5 9.25C17.5 4.69365 13.8063 1 9.25 1C4.69365 1 1 4.69365 1 9.25C1 13.8063 4.69365 17.5 9.25 17.5Z" stroke="currentColor" stroke-linecap="round" stroke-linejoin="round"/>
<path d="M9.25 9.9375C9.6297 9.9375 9.9375 9.6297 9.9375 9.25C9.9375 8.8703 9.6297 8.5625 9.25 8.5625C8.8703 8.5625 8.5625 8.8703 8.5625 9.25C8.5625 9.6297 8.8703 9.9375 9.25 9.9375Z" fill="currentColor"/>
<path d="M5.125 9.9375C5.5047 9.9375 5.8125 9.6297 5.8125 9.25C5.8125 8.8703 5.5047 8.5625 5.125 8.5625C4.7453 8.5625 4.4375 8.8703 4.4375 9.25C4.4375 9.6297 4.7453 9.9375 5.125 9.9375Z" fill="currentColor"/>
<path d="M13.375 9.9375C13.7547 9.9375 14.0625 9.6297 14.0625 9.25C14.0625 8.8703 13.7547 8.5625 13.375 8.5625C12.9953 8.5625 12.6875 8.8703 12.6875 9.25C12.6875 9.6297 12.9953 9.9375 13.375 9.9375Z" fill="currentColor"/>
</svg>
