<svg viewBox="0 0 22 22" fill="none" xmlns="http://www.w3.org/2000/svg">
<path d="M11 19.25C15.5563 19.25 19.25 15.5563 19.25 11C19.25 6.44365 15.5563 2.75 11 2.75C6.44365 2.75 2.75 6.44365 2.75 11C2.75 15.5563 6.44365 19.25 11 19.25Z" stroke="currentColor" stroke-linecap="round" stroke-linejoin="round"/>
<path d="M11 11.6875C11.3797 11.6875 11.6875 11.3797 11.6875 11C11.6875 10.6203 11.3797 10.3125 11 10.3125C10.6203 10.3125 10.3125 10.6203 10.3125 11C10.3125 11.3797 10.6203 11.6875 11 11.6875Z" fill="currentColor"/>
<path d="M6.875 11.6875C7.2547 11.6875 7.5625 11.3797 7.5625 11C7.5625 10.6203 7.2547 10.3125 6.875 10.3125C6.4953 10.3125 6.1875 10.6203 6.1875 11C6.1875 11.3797 6.4953 11.6875 6.875 11.6875Z" fill="currentColor"/>
<path d="M15.125 11.6875C15.5047 11.6875 15.8125 11.3797 15.8125 11C15.8125 10.6203 15.5047 10.3125 15.125 10.3125C14.7453 10.3125 14.4375 10.6203 14.4375 11C14.4375 11.3797 14.7453 11.6875 15.125 11.6875Z" fill="currentColor"/>
</svg>
