<svg viewBox="0 0 54 54" fill="none" xmlns="http://www.w3.org/2000/svg">
<path vector-effect="non-scaling-stroke" d="M5.625 29.79V25.8975C5.625 21.24 9.42749 17.4375 14.085 17.4375H39.915C44.5725 17.4375 48.375 21.24 48.375 25.8975V29.1375H43.83C42.57 29.1375 41.4225 29.6325 40.59 30.4875C39.645 31.41 39.105 32.7375 39.24 34.155C39.4425 36.585 41.67 38.3625 44.1 38.3625H48.375V41.04C48.375 45.6975 44.5725 49.5 39.915 49.5H27.585" stroke="currentColor" stroke-width="1.5" stroke-linecap="round" stroke-linejoin="round"/>
<path vector-effect="non-scaling-stroke" d="M5.625 27.9224V17.6401C5.625 14.9626 7.26749 12.5775 9.76499 11.6325L27.63 4.88245C30.42 3.82495 33.4125 5.89502 33.4125 8.88752V17.4375" stroke="currentColor" stroke-width="1.5" stroke-linecap="round" stroke-linejoin="round"/>
<path vector-effect="non-scaling-stroke" d="M50.7573 31.4328V36.068C50.7573 37.3055 49.7673 38.3179 48.5073 38.3629H44.0973C41.6673 38.3629 39.4398 36.5854 39.2373 34.1554C39.1023 32.7379 39.6423 31.4104 40.5873 30.4879C41.4198 29.6329 42.5673 29.1379 43.8273 29.1379H48.5073C49.7673 29.1829 50.7573 30.1953 50.7573 31.4328Z" stroke="currentColor" stroke-width="1.5" stroke-linecap="round" stroke-linejoin="round"/>
<path vector-effect="non-scaling-stroke" d="M15.75 27H31.5" stroke="currentColor" stroke-width="1.5" stroke-linecap="round" stroke-linejoin="round"/>
<path vector-effect="non-scaling-stroke" d="M6.75 37.125H18.765C20.205 37.125 21.375 38.2949 21.375 39.7349V42.615" stroke="currentColor" stroke-width="1.5" stroke-miterlimit="10" stroke-linecap="round" stroke-linejoin="round"/>
<path vector-effect="non-scaling-stroke" d="M9.495 34.3801L6.75 37.1251L9.495 39.87" stroke="currentColor" stroke-width="1.5" stroke-miterlimit="10" stroke-linecap="round" stroke-linejoin="round"/>
<path vector-effect="non-scaling-stroke" d="M21.375 49.0051H9.36001C7.92001 49.0051 6.75 47.8351 6.75 46.3951V43.5151" stroke="currentColor" stroke-width="1.5" stroke-miterlimit="10" stroke-linecap="round" stroke-linejoin="round"/>
<path vector-effect="non-scaling-stroke" d="M18.6328 51.7507L21.3778 49.0058L18.6328 46.2607" stroke="currentColor" stroke-width="1.5" stroke-miterlimit="10" stroke-linecap="round" stroke-linejoin="round"/>
</svg>
