<svg viewBox="0 0 64 64" fill="none" xmlns="http://www.w3.org/2000/svg">
<path vector-effect="non-scaling-stroke" d="M48.107 36.1336C46.987 37.227 46.347 38.8003 46.507 40.4803C46.747 43.3603 49.387 45.467 52.267 45.467H57.3337V48.6403C57.3337 54.1603 52.827 58.667 47.307 58.667H20.347C21.1737 57.9737 21.8937 57.1203 22.4537 56.1603C23.4403 54.5603 24.0003 52.667 24.0003 50.667C24.0003 44.7737 19.227 40.0003 13.3337 40.0003C10.827 40.0003 8.50699 40.8803 6.66699 42.347V30.6937C6.66699 25.1737 11.1736 20.667 16.6936 20.667H47.307C52.827 20.667 57.3337 25.1737 57.3337 30.6937V34.5337H51.947C50.4536 34.5337 49.0936 35.1203 48.107 36.1336Z" stroke="currentColor" stroke-width="1" stroke-linecap="round" stroke-linejoin="round"/>
<path vector-effect="non-scaling-stroke" d="M6.66699 33.0935V20.9069C6.66699 17.7336 8.61365 14.9068 11.5736 13.7868L32.747 5.78683C36.0537 4.53349 39.6003 6.98691 39.6003 10.5336V20.6669" stroke="currentColor" stroke-width="1" stroke-linecap="round" stroke-linejoin="round"/>
<path vector-effect="non-scaling-stroke" d="M60.1571 37.2536V42.7471C60.1571 44.2137 58.9838 45.4136 57.4905 45.467H52.2638C49.3838 45.467 46.7438 43.3603 46.5038 40.4803C46.3438 38.8003 46.9838 37.227 48.1038 36.1336C49.0905 35.1203 50.4505 34.5337 51.9438 34.5337H57.4905C58.9838 34.587 60.1571 35.7869 60.1571 37.2536Z" stroke="currentColor" stroke-width="1" stroke-linecap="round" stroke-linejoin="round"/>
<path vector-effect="non-scaling-stroke" d="M18.667 32H37.3337" stroke="currentColor" stroke-width="1" stroke-linecap="round" stroke-linejoin="round"/>
<path vector-effect="non-scaling-stroke" d="M24.0003 50.6667C24.0003 52.6667 23.4403 54.56 22.4537 56.16C21.8937 57.12 21.1737 57.9733 20.347 58.6667C18.4803 60.3467 16.027 61.3333 13.3337 61.3333C9.44033 61.3333 6.05366 59.2533 4.21366 56.16C3.227 54.56 2.66699 52.6667 2.66699 50.6667C2.66699 47.3067 4.21366 44.2933 6.66699 42.3467C8.50699 40.88 10.827 40 13.3337 40C19.227 40 24.0003 44.7733 24.0003 50.6667Z" stroke="currentColor" stroke-width="1" stroke-miterlimit="10" stroke-linecap="round" stroke-linejoin="round"/>
<path vector-effect="non-scaling-stroke" d="M9.17773 50.6655L11.8177 53.3055L17.4977 48.0522" stroke="currentColor" stroke-width="1" stroke-linecap="round" stroke-linejoin="round"/>
</svg>
