<svg viewBox="0 0 48 48" fill="none" xmlns="http://www.w3.org/2000/svg">
<path vector-effect="non-scaling-stroke" d="M36.08 27.1C35.24 27.92 34.76 29.1 34.88 30.36C35.06 32.52 37.04 34.1 39.2 34.1H43V36.48C43 40.62 39.62 44 35.48 44H15.26C15.88 43.48 16.42 42.84 16.84 42.12C17.58 40.92 18 39.5 18 38C18 33.58 14.42 30 10 30C8.12 30 6.38 30.66 5 31.76V23.02C5 18.88 8.38 15.5 12.52 15.5H35.48C39.62 15.5 43 18.88 43 23.02V25.9H38.96C37.84 25.9 36.82 26.34 36.08 27.1Z" stroke="currentColor" stroke-width="1" stroke-linecap="round" stroke-linejoin="round"/>
<path vector-effect="non-scaling-stroke" d="M5 24.82V15.6801C5 13.3001 6.45999 11.18 8.67999 10.34L24.56 4.34C27.04 3.4 29.7 5.24006 29.7 7.90006V15.5" stroke="currentColor" stroke-width="1" stroke-linecap="round" stroke-linejoin="round"/>
<path vector-effect="non-scaling-stroke" d="M45.1176 27.9403V32.0604C45.1176 33.1604 44.2376 34.0603 43.1176 34.1003H39.1976C37.0376 34.1003 35.0576 32.5204 34.8776 30.3604C34.7576 29.1004 35.2376 27.9203 36.0776 27.1003C36.8176 26.3403 37.8376 25.9004 38.9576 25.9004H43.1176C44.2376 25.9404 45.1176 26.8403 45.1176 27.9403Z" stroke="currentColor" stroke-width="1" stroke-linecap="round" stroke-linejoin="round"/>
<path vector-effect="non-scaling-stroke" d="M14 24H28" stroke="currentColor" stroke-width="1" stroke-linecap="round" stroke-linejoin="round"/>
<path vector-effect="non-scaling-stroke" d="M18 38C18 39.5 17.58 40.92 16.84 42.12C16.42 42.84 15.88 43.48 15.26 44C13.86 45.26 12.02 46 10 46C7.08 46 4.54 44.44 3.16 42.12C2.42 40.92 2 39.5 2 38C2 35.48 3.16 33.22 5 31.76C6.38 30.66 8.12 30 10 30C14.42 30 18 33.58 18 38Z" stroke="currentColor" stroke-width="1" stroke-miterlimit="10" stroke-linecap="round" stroke-linejoin="round"/>
<path vector-effect="non-scaling-stroke" d="M12.9834 37.959H7.02344" stroke="currentColor" stroke-width="1" stroke-miterlimit="10" stroke-linecap="round" stroke-linejoin="round"/>
<path vector-effect="non-scaling-stroke" d="M10 35.0391V41.019" stroke="currentColor" stroke-width="1" stroke-miterlimit="10" stroke-linecap="round" stroke-linejoin="round"/>
</svg>
