<svg viewBox="0 0 54 54" fill="none" xmlns="http://www.w3.org/2000/svg">
<path vector-effect="non-scaling-stroke" d="M49.5 29.25V20.25C49.5 9 45 4.5 33.75 4.5H20.25C9 4.5 4.5 9 4.5 20.25V33.75C4.5 45 9 49.5 20.25 49.5H29.25" stroke="currentColor" stroke-width="1.5" stroke-linecap="round" stroke-linejoin="round"/>
<path vector-effect="non-scaling-stroke" d="M16.4922 32.6025L21.8472 25.65C22.6122 24.66 24.0297 24.48 25.0197 25.245L29.1372 28.485C30.1272 29.25 31.5447 29.07 32.3097 28.1025L37.5072 21.3975" stroke="currentColor" stroke-width="1.5" stroke-linecap="round" stroke-linejoin="round"/>
<path vector-effect="non-scaling-stroke" d="M43.8298 35.5952L44.4598 36.8777C44.7748 37.5077 45.5622 38.0927 46.2597 38.2277L47.1147 38.3627C49.6797 38.7902 50.2872 40.6802 48.4422 42.5477L47.6547 43.3352C47.1372 43.8752 46.8448 44.9102 47.0023 45.6302L47.1147 46.1027C47.8122 49.2077 46.1698 50.4002 43.4698 48.7802L42.8847 48.4427C42.1872 48.0377 41.0622 48.0377 40.3647 48.4427L39.7797 48.7802C37.0572 50.4227 35.4147 49.2077 36.1347 46.1027L36.2472 45.6302C36.4047 44.9102 36.1123 43.8752 35.5948 43.3352L34.8072 42.5477C32.9622 40.6802 33.5697 38.7902 36.1347 38.3627L36.9897 38.2277C37.6647 38.1152 38.4747 37.5077 38.7897 36.8777L39.4197 35.5952C40.6347 33.1427 42.6148 33.1427 43.8298 35.5952Z" stroke="currentColor" stroke-width="1.5" stroke-linecap="round" stroke-linejoin="round"/>
</svg>
