<svg viewBox="0 0 18 18" fill="none" xmlns="http://www.w3.org/2000/svg">
<path vector-effect="non-scaling-stroke" d="M14.8425 11.1975C13.2975 12.735 11.085 13.2075 9.14249 12.6L5.60999 16.125C5.35499 16.3875 4.85249 16.545 4.49249 16.4925L2.85749 16.2675C2.31749 16.1925 1.81499 15.6825 1.73249 15.1425L1.50749 13.5075C1.45499 13.1475 1.62749 12.645 1.87499 12.39L5.39999 8.86499C4.79999 6.91499 5.26499 4.70249 6.80999 3.16499C9.02249 0.95249 12.615 0.95249 14.835 3.16499C17.055 5.37749 17.055 8.98499 14.8425 11.1975Z" stroke="currentColor" stroke-width="1" stroke-miterlimit="10" stroke-linecap="round" stroke-linejoin="round"/>
<path vector-effect="non-scaling-stroke" d="M5.16748 13.1175L6.89248 14.8425" stroke="currentColor" stroke-width="1" stroke-miterlimit="10" stroke-linecap="round" stroke-linejoin="round"/>
<path vector-effect="non-scaling-stroke" d="M10.875 8.25C11.4963 8.25 12 7.74632 12 7.125C12 6.50368 11.4963 6 10.875 6C10.2537 6 9.75 6.50368 9.75 7.125C9.75 7.74632 10.2537 8.25 10.875 8.25Z" stroke="currentColor" stroke-width="1" stroke-linecap="round" stroke-linejoin="round"/>
</svg>
