<svg  viewBox="0 0 14 14" fill="none" xmlns="http://www.w3.org/2000/svg">
<path d="M4.89417 10.7858V4.85913C4.89417 4.6258 4.96416 4.3983 5.0925 4.2058L6.685 1.83747C6.93583 1.4583 7.56 1.18997 8.09083 1.3883C8.6625 1.5808 9.04167 2.22246 8.91917 2.79413L8.61583 4.70163C8.5925 4.87663 8.63916 5.03413 8.73833 5.15663C8.8375 5.26747 8.98333 5.33746 9.14083 5.33746H11.5383C11.9992 5.33746 12.3958 5.52413 12.6292 5.8508C12.8508 6.1658 12.8917 6.57413 12.7458 6.9883L11.3108 11.3575C11.13 12.0808 10.3425 12.67 9.56083 12.67H7.28583C6.895 12.67 6.34666 12.5358 6.09583 12.285L5.34916 11.7075C5.06333 11.4916 4.89417 11.1475 4.89417 10.7858Z" fill="currentColor"/>
<path d="M3.03916 3.72168H2.43832C1.53416 3.72168 1.16666 4.07168 1.16666 4.93501V10.8033C1.16666 11.6667 1.53416 12.0167 2.43832 12.0167H3.03916C3.94332 12.0167 4.31082 11.6667 4.31082 10.8033V4.93501C4.31082 4.07168 3.94332 3.72168 3.03916 3.72168Z" fill="currentColor"/>
</svg>
