<svg viewBox="0 0 64 64" fill="none" xmlns="http://www.w3.org/2000/svg">
<path vector-effect="non-scaling-stroke" d="M19.9473 48.9333L28.2139 55.3333C29.2806 56.4 31.6806 56.9333 33.2806 56.9333H43.4139C46.6139 56.9333 50.0806 54.5333 50.8806 51.3333L57.2806 31.8667C58.6139 28.1333 56.2139 24.9333 52.2139 24.9333H41.5473C39.9473 24.9333 38.6139 23.6 38.8806 21.7333L40.2139 13.2C40.7473 10.8 39.1473 8.13333 36.7473 7.33333C34.6139 6.53333 31.9473 7.6 30.8806 9.2L19.9473 25.4667" stroke="currentColor" stroke-width="1.5" stroke-miterlimit="10"/>
<path vector-effect="non-scaling-stroke" d="M6.3457 48.9334V22.8001C6.3457 19.0667 7.9457 17.7334 11.679 17.7334H14.3457C18.079 17.7334 19.679 19.0667 19.679 22.8001V48.9334C19.679 52.6667 18.079 54.0001 14.3457 54.0001H11.679C7.9457 54.0001 6.3457 52.6667 6.3457 48.9334Z" stroke="currentColor" stroke-width="1.5" stroke-linecap="round" stroke-linejoin="round"/>
</svg>
