<svg viewBox="0 0 24 24" fill="none" xmlns="http://www.w3.org/2000/svg">
<path d="M19.5 8.25H4.5C4.08579 8.25 3.75 8.58579 3.75 9V19.5C3.75 19.9142 4.08579 20.25 4.5 20.25H19.5C19.9142 20.25 20.25 19.9142 20.25 19.5V9C20.25 8.58579 19.9142 8.25 19.5 8.25Z" stroke="currentColor" stroke-linecap="round" stroke-linejoin="round"/>
<path d="M8.625 8.25V4.875C8.625 3.97989 8.98058 3.12145 9.61351 2.48851C10.2465 1.85558 11.1049 1.5 12 1.5C12.8951 1.5 13.7535 1.85558 14.3865 2.48851C15.0194 3.12145 15.375 3.97989 15.375 4.875" stroke="currentColor" stroke-linecap="round" stroke-linejoin="round"/>
<path d="M12 15C12.4142 15 12.75 14.6642 12.75 14.25C12.75 13.8358 12.4142 13.5 12 13.5C11.5858 13.5 11.25 13.8358 11.25 14.25C11.25 14.6642 11.5858 15 12 15Z" fill="currentColor"/>
</svg>
