<svg  viewBox="0 0 28 28" fill="none" xmlns="http://www.w3.org/2000/svg">
<path vector-effect="non-scaling-stroke" d="M25.6668 10.4999V17.4999C25.6668 20.4166 25.0835 22.4583 23.7768 23.7766L16.3335 16.3333L25.3518 7.31494C25.5618 8.23661 25.6668 9.2866 25.6668 10.4999Z" stroke="currentColor" stroke-width="1.5" stroke-linecap="round" stroke-linejoin="round"/>
<path vector-effect="non-scaling-stroke" d="M25.3518 7.31517L7.31515 25.3518C3.80348 24.5468 2.3335 22.1202 2.3335 17.5002V10.5002C2.3335 4.66683 4.66683 2.3335 10.5002 2.3335H17.5002C22.1202 2.3335 24.5468 3.8035 25.3518 7.31517Z" stroke="currentColor" stroke-width="1.5" stroke-linecap="round" stroke-linejoin="round"/>
<path vector-effect="non-scaling-stroke" d="M23.7766 23.7768C22.4583 25.0835 20.4166 25.6668 17.5 25.6668H10.5C9.28662 25.6668 8.23661 25.5618 7.31494 25.3518L16.3333 16.3335L23.7766 23.7768Z" stroke="currentColor" stroke-width="1.5" stroke-linecap="round" stroke-linejoin="round"/>
<path vector-effect="non-scaling-stroke" d="M7.27982 9.30984C8.07315 5.89151 13.2065 5.89151 13.9998 9.30984C14.4548 11.3165 13.1948 13.0198 12.0865 14.0698C11.2815 14.8398 10.0098 14.8398 9.19317 14.0698C8.08484 13.0198 6.81315 11.3165 7.27982 9.30984Z" stroke="currentColor" stroke-width="1.5"/>
<path vector-effect="non-scaling-stroke" d="M10.6101 10.1502H10.6206" stroke="currentColor" stroke-width="2" stroke-linecap="round" stroke-linejoin="round"/>
</svg>
