<svg viewBox="0 0 28 36" fill="none" xmlns="http://www.w3.org/2000/svg">
<path d="M14.125 19.375C17.0245 19.375 19.375 17.0245 19.375 14.125C19.375 11.2255 17.0245 8.875 14.125 8.875C11.2255 8.875 8.875 11.2255 8.875 14.125C8.875 17.0245 11.2255 19.375 14.125 19.375Z" stroke="currentColor" stroke-linecap="round" stroke-linejoin="round"/>
<path d="M27.25 14.125C27.25 25.9375 14.125 35.125 14.125 35.125C14.125 35.125 1 25.9375 1 14.125C1 10.644 2.38281 7.30564 4.84422 4.84422C7.30564 2.38281 10.644 1 14.125 1C17.606 1 20.9444 2.38281 23.4058 4.84422C25.8672 7.30564 27.25 10.644 27.25 14.125V14.125Z" stroke="currentColor" stroke-linecap="round" stroke-linejoin="round"/>
</svg>
