<svg viewBox="0 0 26 26" fill="none" xmlns="http://www.w3.org/2000/svg">
<path vector-effect="non-scaling-stroke" d="M12.9345 2.39431L10.3236 8.47181H7.71281C7.27948 8.47181 6.85698 8.50431 6.44531 8.59097L7.52865 5.99098L7.57198 5.89348L7.63698 5.72014C7.66948 5.64431 7.69115 5.57931 7.72365 5.52514C8.98031 2.61098 10.3886 1.70098 12.9345 2.39431Z" fill="currentColor"/>
<path vector-effect="non-scaling-stroke" d="M20.2897 8.76415L20.2681 8.75331C19.6181 8.56915 18.9572 8.47165 18.2856 8.47165H11.5039L13.9414 2.80581L13.9739 2.72998C14.1256 2.78415 14.2881 2.85998 14.4506 2.91415L16.8447 3.92165C18.1772 4.47415 19.1089 5.04831 19.6831 5.74165C19.7806 5.87165 19.8672 5.99081 19.9539 6.13165C20.0514 6.28331 20.1272 6.43498 20.1706 6.59748C20.2139 6.69498 20.2464 6.78165 20.2681 6.87915C20.4306 7.43165 20.4414 8.05998 20.2897 8.76415Z" fill="currentColor"/>
<path vector-effect="non-scaling-stroke" d="M19.8133 10.3133C19.3258 10.1725 18.8166 10.0967 18.2858 10.0967H7.71245C6.97578 10.0967 6.28245 10.2375 5.63245 10.5192C3.74745 11.3317 2.42578 13.2058 2.42578 15.3833V17.4958C2.42578 17.7558 2.44745 18.005 2.47995 18.265C2.71828 21.71 4.55995 23.5517 8.00495 23.7792C8.25411 23.8117 8.50328 23.8333 8.77412 23.8333H17.2241C21.2324 23.8333 23.3449 21.9267 23.5508 18.135C23.5616 17.9292 23.5724 17.7125 23.5724 17.4958V15.3833C23.5724 12.9892 21.9799 10.9742 19.8133 10.3133ZM15.7074 17.5392H13.8116V19.5C13.8116 19.9442 13.4433 20.3125 12.9991 20.3125C12.5549 20.3125 12.1866 19.9442 12.1866 19.5V17.5392H10.2908C9.84662 17.5392 9.47828 17.1817 9.47828 16.7267C9.47828 16.2825 9.84662 15.9142 10.2908 15.9142H12.1866V14.0833C12.1866 13.6392 12.5549 13.2708 12.9991 13.2708C13.4433 13.2708 13.8116 13.6392 13.8116 14.0833V15.9142H15.7074C16.1516 15.9142 16.5199 16.2825 16.5199 16.7267C16.5199 17.1817 16.1516 17.5392 15.7074 17.5392Z" fill="currentColor"/>
</svg>
