<svg viewBox="0 0 26 26" fill="none" xmlns="http://www.w3.org/2000/svg">
<path vector-effect="non-scaling-stroke" d="M23.8346 20.5833V23.8333H2.16797V20.5833C2.16797 19.9875 2.65547 19.5 3.2513 19.5H22.7513C23.3471 19.5 23.8346 19.9875 23.8346 20.5833Z" fill="currentColor" stroke="currentColor" stroke-width="1.5" stroke-miterlimit="10" stroke-linecap="round" stroke-linejoin="round"/>
<path vector-effect="non-scaling-stroke" d="M7.58464 11.9165H5.41797V19.4998H7.58464V11.9165Z" fill="currentColor"/>
<path vector-effect="non-scaling-stroke" d="M11.9167 11.9165H9.75V19.4998H11.9167V11.9165Z" fill="currentColor"/>
<path vector-effect="non-scaling-stroke" d="M16.2487 11.9165H14.082V19.4998H16.2487V11.9165Z" fill="currentColor"/>
<path vector-effect="non-scaling-stroke" d="M20.5846 11.9165H18.418V19.4998H20.5846V11.9165Z" fill="currentColor"/>
<path vector-effect="non-scaling-stroke" d="M24.9154 24.646H1.08203C0.637865 24.646 0.269531 24.2777 0.269531 23.8335C0.269531 23.3893 0.637865 23.021 1.08203 23.021H24.9154C25.3595 23.021 25.7279 23.3893 25.7279 23.8335C25.7279 24.2777 25.3595 24.646 24.9154 24.646Z" fill="currentColor"/>
<path vector-effect="non-scaling-stroke" d="M23.1521 6.22916L13.4021 2.32916C13.1855 2.24249 12.8171 2.24249 12.6005 2.32916L2.85047 6.22916C2.4713 6.38083 2.16797 6.82499 2.16797 7.23666V10.8333C2.16797 11.4292 2.65547 11.9167 3.2513 11.9167H22.7513C23.3471 11.9167 23.8346 11.4292 23.8346 10.8333V7.23666C23.8346 6.82499 23.5313 6.38083 23.1521 6.22916ZM13.0013 9.20833C12.1021 9.20833 11.3763 8.48249 11.3763 7.58333C11.3763 6.68416 12.1021 5.95833 13.0013 5.95833C13.9005 5.95833 14.6263 6.68416 14.6263 7.58333C14.6263 8.48249 13.9005 9.20833 13.0013 9.20833Z" fill="currentColor"/>
</svg>
