<svg viewBox="0 0 26 26" fill="none" xmlns="http://www.w3.org/2000/svg">
<path vector-effect="non-scaling-stroke" d="M20.9858 5.29738L14.6374 2.46988C13.7058 2.05822 12.2974 2.05822 11.3658 2.46988L5.01745 5.29738C3.41411 6.01238 3.17578 6.98738 3.17578 7.50738C3.17578 8.02738 3.41411 9.00238 5.01745 9.71738L11.3658 12.5449C11.8316 12.7507 12.4166 12.859 13.0016 12.859C13.5866 12.859 14.1716 12.7507 14.6374 12.5449L20.9858 9.71738C22.5891 9.00238 22.8274 8.02738 22.8274 7.50738C22.8274 6.98738 22.5999 6.01238 20.9858 5.29738Z" fill="currentColor"/>
<path vector-effect="non-scaling-stroke" d="M12.9984 18.4598C12.5867 18.4598 12.1751 18.3732 11.7959 18.2107L4.49422 14.9607C3.37839 14.4623 2.51172 13.1298 2.51172 11.9057C2.51172 11.4615 2.86922 11.104 3.31339 11.104C3.75755 11.104 4.11505 11.4615 4.11505 11.9057C4.11505 12.4907 4.60255 13.249 5.14422 13.4873L12.4459 16.7373C12.7926 16.889 13.1934 16.889 13.5401 16.7373L20.8417 13.4873C21.3834 13.249 21.8709 12.5015 21.8709 11.9057C21.8709 11.4615 22.2284 11.104 22.6726 11.104C23.1167 11.104 23.4742 11.4615 23.4742 11.9057C23.4742 13.119 22.6076 14.4623 21.4917 14.9607L14.1901 18.2107C13.8217 18.3732 13.4101 18.4598 12.9984 18.4598Z" fill="currentColor"/>
<path vector-effect="non-scaling-stroke" d="M12.9984 23.8334C12.5867 23.8334 12.1751 23.7467 11.7959 23.5842L4.49422 20.3342C3.29172 19.8034 2.51172 18.6009 2.51172 17.2792C2.51172 16.835 2.86922 16.4775 3.31339 16.4775C3.75755 16.4775 4.11505 16.835 4.11505 17.2792C4.11505 17.9617 4.51589 18.5792 5.14422 18.8609L12.4459 22.1109C12.7926 22.2625 13.1934 22.2625 13.5401 22.1109L20.8417 18.8609C21.4592 18.59 21.8709 17.9617 21.8709 17.2792C21.8709 16.835 22.2284 16.4775 22.6726 16.4775C23.1167 16.4775 23.4742 16.835 23.4742 17.2792C23.4742 18.6009 22.6942 19.7925 21.4917 20.3342L14.1901 23.5842C13.8217 23.7467 13.4101 23.8334 12.9984 23.8334Z" fill="currentColor"/>
</svg>
