<svg viewBox="0 0 26 26" fill="none" xmlns="http://www.w3.org/2000/svg">
<path vector-effect="non-scaling-stroke" d="M20.7666 7.19348C20.3007 4.84264 18.5566 3.81348 16.1299 3.81348H6.61823C3.75823 3.81348 1.85156 5.24348 1.85156 8.58014V14.1593C1.85156 16.5643 2.8374 17.9726 4.4624 18.5793C4.70073 18.666 4.96073 18.7418 5.23156 18.7851C5.6649 18.8826 6.13073 18.926 6.61823 18.926H16.1407C19.0007 18.926 20.9074 17.496 20.9074 14.1593V8.58014C20.9074 8.07098 20.8641 7.61598 20.7666 7.19348ZM5.9899 13.0001C5.9899 13.4443 5.62156 13.8126 5.1774 13.8126C4.73323 13.8126 4.3649 13.4443 4.3649 13.0001V9.75014C4.3649 9.30598 4.73323 8.93764 5.1774 8.93764C5.62156 8.93764 5.9899 9.30598 5.9899 9.75014V13.0001ZM11.3741 14.2351C9.7924 14.2351 8.51406 12.9568 8.51406 11.3751C8.51406 9.79348 9.7924 8.51514 11.3741 8.51514C12.9557 8.51514 14.2341 9.79348 14.2341 11.3751C14.2341 12.9568 12.9557 14.2351 11.3741 14.2351ZM18.3724 13.0001C18.3724 13.4443 18.0041 13.8126 17.5599 13.8126C17.1157 13.8126 16.7474 13.4443 16.7474 13.0001V9.75014C16.7474 9.30598 17.1157 8.93764 17.5599 8.93764C18.0041 8.93764 18.3724 9.30598 18.3724 9.75014V13.0001Z" fill="currentColor"/>
<path vector-effect="non-scaling-stroke" d="M24.1595 11.8301V17.4093C24.1595 20.746 22.2529 22.1868 19.382 22.1868H9.87038C9.05788 22.1868 8.33205 22.0676 7.70371 21.8293C7.19455 21.6451 6.75038 21.3743 6.39288 21.0276C6.19788 20.8435 6.34955 20.551 6.62038 20.551H16.132C20.1404 20.551 22.5237 18.1676 22.5237 14.1701V8.58014C22.5237 8.32014 22.8162 8.15764 23.0004 8.35264C23.737 9.13264 24.1595 10.2701 24.1595 11.8301Z" fill="currentColor"/>
</svg>
