<svg viewBox="0 0 26 26" fill="none" xmlns="http://www.w3.org/2000/svg">
<path vector-effect="non-scaling-stroke" d="M17.5405 2.1665H8.46214C4.5188 2.1665 2.16797 4.51734 2.16797 8.46067V17.5282C2.16797 21.4823 4.5188 23.8332 8.46214 23.8332H17.5296C21.473 23.8332 23.8238 21.4823 23.8238 17.539V8.46067C23.8346 4.51734 21.4838 2.1665 17.5405 2.1665ZM8.26714 19.6623C8.26714 20.1065 7.8988 20.4748 7.45464 20.4748C7.01047 20.4748 6.64214 20.1065 6.64214 19.6623V17.4198C6.64214 16.9757 7.01047 16.6073 7.45464 16.6073C7.8988 16.6073 8.26714 16.9757 8.26714 17.4198V19.6623ZM13.8138 19.6623C13.8138 20.1065 13.4455 20.4748 13.0013 20.4748C12.5571 20.4748 12.1888 20.1065 12.1888 19.6623V15.1665C12.1888 14.7223 12.5571 14.354 13.0013 14.354C13.4455 14.354 13.8138 14.7223 13.8138 15.1665V19.6623ZM19.3605 19.6623C19.3605 20.1065 18.9921 20.4748 18.548 20.4748C18.1038 20.4748 17.7355 20.1065 17.7355 19.6623V12.924C17.7355 12.4798 18.1038 12.1115 18.548 12.1115C18.9921 12.1115 19.3605 12.4798 19.3605 12.924V19.6623ZM19.3605 9.50067C19.3605 9.94484 18.9921 10.3132 18.548 10.3132C18.1038 10.3132 17.7355 9.94484 17.7355 9.50067V8.44984C14.973 11.2882 11.5171 13.2923 7.64964 14.2565C7.58464 14.2782 7.51964 14.2782 7.45464 14.2782C7.0863 14.2782 6.7613 14.029 6.6638 13.6607C6.55547 13.2273 6.81547 12.7832 7.25964 12.6748C10.9105 11.7648 14.1605 9.84734 16.7388 7.139H15.3846C14.9405 7.139 14.5721 6.77067 14.5721 6.3265C14.5721 5.88234 14.9405 5.514 15.3846 5.514H18.5588C18.6021 5.514 18.6346 5.53567 18.678 5.53567C18.7321 5.5465 18.7863 5.5465 18.8405 5.56817C18.8946 5.58984 18.938 5.62234 18.9921 5.65484C19.0246 5.6765 19.0571 5.68734 19.0896 5.709C19.1005 5.71984 19.1005 5.73067 19.1113 5.73067C19.1546 5.774 19.1871 5.81734 19.2196 5.86067C19.2521 5.904 19.2846 5.9365 19.2955 5.97984C19.3171 6.02317 19.3171 6.0665 19.328 6.12067C19.3388 6.17484 19.3605 6.229 19.3605 6.294C19.3605 6.30484 19.3713 6.31567 19.3713 6.3265V9.50067H19.3605Z" fill="currentColor"/>
</svg>
