<svg viewBox="0 0 64 64" fill="none" xmlns="http://www.w3.org/2000/svg">
<path vector-effect="non-scaling-stroke" d="M5.33301 29.3332V23.9998C5.33301 14.6665 10.6663 10.6665 18.6663 10.6665H45.333C53.333 10.6665 58.6663 14.6665 58.6663 23.9998V39.9998C58.6663 49.3332 53.333 53.3332 45.333 53.3332H31.9997" stroke="currentColor" stroke-width="1" stroke-miterlimit="10" stroke-linecap="round" stroke-linejoin="round"/>
<path vector-effect="non-scaling-stroke" d="M31.9997 38.6668C35.6816 38.6668 38.6663 35.6821 38.6663 32.0002C38.6663 28.3183 35.6816 25.3335 31.9997 25.3335C28.3178 25.3335 25.333 28.3183 25.333 32.0002C25.333 35.6821 28.3178 38.6668 31.9997 38.6668Z" stroke="currentColor" stroke-width="1" stroke-miterlimit="10" stroke-linecap="round" stroke-linejoin="round"/>
<path vector-effect="non-scaling-stroke" d="M49.333 25.3335V38.6668" stroke="currentColor" stroke-width="1" stroke-miterlimit="10" stroke-linecap="round" stroke-linejoin="round"/>
<path vector-effect="non-scaling-stroke" d="M5.33301 41.3335H19.5731C21.2797 41.3335 22.6663 42.7201 22.6663 44.4268V47.8402" stroke="currentColor" stroke-width="1" stroke-miterlimit="10" stroke-linecap="round" stroke-linejoin="round"/>
<path vector-effect="non-scaling-stroke" d="M8.58626 38.0801L5.33301 41.3333L8.58626 44.5866" stroke="currentColor" stroke-width="1" stroke-miterlimit="10" stroke-linecap="round" stroke-linejoin="round"/>
<path vector-effect="non-scaling-stroke" d="M22.6663 55.4134H8.42627C6.7196 55.4134 5.33301 54.0267 5.33301 52.32V48.9067" stroke="currentColor" stroke-width="1" stroke-miterlimit="10" stroke-linecap="round" stroke-linejoin="round"/>
<path vector-effect="non-scaling-stroke" d="M19.416 58.6673L22.6693 55.4141L19.416 52.1606" stroke="currentColor" stroke-width="1" stroke-miterlimit="10" stroke-linecap="round" stroke-linejoin="round"/>
</svg>
