<svg viewBox="0 0 64 64" fill="none" xmlns="http://www.w3.org/2000/svg">
<path vector-effect="non-scaling-stroke" d="M51.4672 21.12V34.8534C51.4672 43.0667 46.7739 46.5866 39.7339 46.5866H16.2939C15.0939 46.5866 13.9472 46.4801 12.8805 46.2401C12.2139 46.1334 11.5739 45.9467 10.9872 45.7334C6.98722 44.2401 4.56055 40.7734 4.56055 34.8534V21.12C4.56055 12.9066 9.25386 9.38672 16.2939 9.38672H39.7339C45.7072 9.38672 50.0006 11.92 51.1472 17.7067C51.3339 18.7734 51.4672 19.8666 51.4672 21.12Z" stroke="currentColor" stroke-width="1" stroke-miterlimit="10" stroke-linecap="round" stroke-linejoin="round"/>
<path vector-effect="non-scaling-stroke" d="M59.4695 29.1203V42.8537C59.4695 51.067 54.7762 54.5869 47.7362 54.5869H24.2961C22.3228 54.5869 20.5362 54.3204 18.9895 53.7337C15.8162 52.5604 13.6561 50.1337 12.8828 46.2404C13.9495 46.4804 15.0961 46.5869 16.2961 46.5869H39.7362C46.7762 46.5869 51.4695 43.067 51.4695 34.8537V21.1203C51.4695 19.8669 51.3628 18.747 51.1495 17.707C56.2162 18.7737 59.4695 22.3469 59.4695 29.1203Z" stroke="currentColor" stroke-width="1" stroke-miterlimit="10" stroke-linecap="round" stroke-linejoin="round"/>
<path vector-effect="non-scaling-stroke" d="M27.9971 35.0398C31.8852 35.0398 35.0371 31.8878 35.0371 27.9998C35.0371 24.1117 31.8852 20.9597 27.9971 20.9597C24.109 20.9597 20.957 24.1117 20.957 27.9998C20.957 31.8878 24.109 35.0398 27.9971 35.0398Z" stroke="currentColor" stroke-width="1" stroke-miterlimit="10" stroke-linecap="round" stroke-linejoin="round"/>
<path vector-effect="non-scaling-stroke" d="M12.748 22.1333V33.8667" stroke="currentColor" stroke-width="1" stroke-miterlimit="10" stroke-linecap="round" stroke-linejoin="round"/>
<path vector-effect="non-scaling-stroke" d="M43.2578 22.134V33.8674" stroke="currentColor" stroke-width="1" stroke-miterlimit="10" stroke-linecap="round" stroke-linejoin="round"/>
</svg>
