<svg viewBox="0 0 54 54" fill="none" xmlns="http://www.w3.org/2000/svg">
<path vector-effect="non-scaling-stroke" d="M22.5 38.1374H13.9725C6.39 38.1374 4.5 36.2474 4.5 28.6649V15.1649C4.5 7.58238 6.39 5.69238 13.9725 5.69238H37.665C45.2475 5.69238 47.1375 7.58238 47.1375 15.1649" stroke="currentColor" stroke-width="1.5" stroke-linecap="round" stroke-linejoin="round"/>
<path vector-effect="non-scaling-stroke" d="M22.5 48.3074V38.1375" stroke="currentColor" stroke-width="1.5" stroke-linecap="round" stroke-linejoin="round"/>
<path vector-effect="non-scaling-stroke" d="M4.5 29.1375H22.5" stroke="currentColor" stroke-width="1.5" stroke-linecap="round" stroke-linejoin="round"/>
<path vector-effect="non-scaling-stroke" d="M15.165 48.3076H22.5" stroke="currentColor" stroke-width="1.5" stroke-linecap="round" stroke-linejoin="round"/>
<path vector-effect="non-scaling-stroke" d="M49.4999 28.7999V41.6474C49.4999 46.9799 48.1724 48.3074 42.8399 48.3074H34.8524C29.5199 48.3074 28.1924 46.9799 28.1924 41.6474V28.7999C28.1924 23.4674 29.5199 22.1399 34.8524 22.1399H42.8399C48.1724 22.1399 49.4999 23.4674 49.4999 28.7999Z" stroke="currentColor" stroke-width="1.5" stroke-linecap="round" stroke-linejoin="round"/>
<path vector-effect="non-scaling-stroke" d="M38.8001 41.0625H38.8204" stroke="currentColor" stroke-width="2" stroke-linecap="round" stroke-linejoin="round"/>
</svg>
