<svg viewBox="0 0 64 64" fill="none" xmlns="http://www.w3.org/2000/svg">
<path vector-effect="non-scaling-stroke" d="M50.6663 42.6667V17.3333C50.6663 14.4 48.2663 12 45.333 12H33.333" stroke="currentColor" stroke-width="1" stroke-linecap="round" stroke-linejoin="round"/>
<path vector-effect="non-scaling-stroke" d="M40 5.3335L32 12.0002L40 18.6668" stroke="currentColor" stroke-width="1" stroke-linecap="round" stroke-linejoin="round"/>
<path vector-effect="non-scaling-stroke" d="M13.333 24V42.6667" stroke="currentColor" stroke-width="1" stroke-linecap="round" stroke-linejoin="round"/>
<path vector-effect="non-scaling-stroke" d="M13.9997 22.6668C18.7861 22.6668 22.6663 18.7866 22.6663 14.0002C22.6663 9.2137 18.7861 5.3335 13.9997 5.3335C9.21321 5.3335 5.33301 9.2137 5.33301 14.0002C5.33301 18.7866 9.21321 22.6668 13.9997 22.6668Z" stroke="currentColor" stroke-width="1" stroke-linecap="round" stroke-linejoin="round"/>
<path vector-effect="non-scaling-stroke" d="M13.333 58.6665C17.7513 58.6665 21.333 55.0848 21.333 50.6665C21.333 46.2482 17.7513 42.6665 13.333 42.6665C8.91473 42.6665 5.33301 46.2482 5.33301 50.6665C5.33301 55.0848 8.91473 58.6665 13.333 58.6665Z" stroke="currentColor" stroke-width="1" stroke-linecap="round" stroke-linejoin="round"/>
<path vector-effect="non-scaling-stroke" d="M50.667 58.6665C55.0853 58.6665 58.667 55.0848 58.667 50.6665C58.667 46.2482 55.0853 42.6665 50.667 42.6665C46.2487 42.6665 42.667 46.2482 42.667 50.6665C42.667 55.0848 46.2487 58.6665 50.667 58.6665Z" stroke="currentColor" stroke-width="1" stroke-linecap="round" stroke-linejoin="round"/>
</svg>
