<svg viewBox="0 0 18 18" fill="none" xmlns="http://www.w3.org/2000/svg">
<path vector-effect="non-scaling-stroke" d="M17.0509 10.5136C16.5273 9.99 15.8236 9.71182 15.0136 9.71182C14.6945 9.71182 14.4491 9.78545 14.2282 9.85091C14.0973 9.89182 13.9582 9.93273 13.7782 9.95727C13.1318 9.20454 12.1909 8.08364 11.3891 6.57C12.3709 7.09364 13.5736 7.38 14.8664 7.38C14.9891 7.38 15.12 7.38 15.2427 7.38C15.4964 7.37182 15.7255 7.21636 15.84 6.98727C15.9545 6.75818 15.93 6.48 15.7909 6.27545C15.4064 5.72727 15.2755 5.04818 15.1282 4.32818C14.9645 3.51818 14.7845 2.59364 14.1955 1.78364C12.9191 0 10.8491 0 9.73636 0C9.60545 0 9.48273 0 9.37636 0C9.16364 0 8.95909 0.09 8.82818 0.237273C8.64818 0.36 7.55182 1.15364 6.46364 2.72455C5.78455 3.70636 5.25273 4.78636 4.86818 5.94818C4.45091 7.20818 4.21364 8.55818 4.15636 9.97363C3.99273 9.94091 3.85364 9.9 3.71455 9.85909C3.43636 9.77727 3.15 9.69545 2.79 9.70363C1.93091 9.73636 1.21909 10.08 0.728182 10.7018C0.245455 11.3155 0 12.1582 0 13.2218C0 15.8564 2.17636 17.9918 4.85182 17.9918C6.61091 17.9918 8.14909 17.0673 9 15.6845C9.85091 17.0673 11.3891 17.9918 13.1482 17.9918C14.0645 17.9918 14.9645 17.7382 15.7336 17.2555C16.0609 17.0509 16.1673 16.6173 15.9545 16.29C15.75 15.9627 15.3164 15.8564 14.9891 16.0691C14.4409 16.4127 13.8027 16.5927 13.1482 16.5927C11.25 16.5927 9.70364 15.0709 9.70364 13.1973C9.70364 11.8227 10.1864 11.1027 11.1436 11.07C11.2664 11.07 11.3891 11.1027 11.61 11.1682C11.9536 11.2664 12.42 11.4136 13.1482 11.4136C13.8764 11.4136 14.3182 11.2909 14.6291 11.2009C14.8091 11.1436 14.8991 11.1191 15.0136 11.1191C15.4473 11.1191 15.7991 11.25 16.0609 11.5118C16.4127 11.8636 16.5927 12.4445 16.5927 13.2055C16.5927 13.4427 16.5682 13.6882 16.5191 13.9173C16.4373 14.2936 16.6745 14.67 17.0591 14.7518C17.4355 14.8336 17.8118 14.5964 17.8936 14.2118C17.9673 13.8845 18 13.5409 18 13.2055C18 12.0682 17.6727 11.1355 17.0509 10.5136ZM10.0227 1.40727C11.0291 1.41545 12.2809 1.51364 13.0745 2.61C13.4836 3.17455 13.6227 3.86182 13.7618 4.59818C13.8518 5.04 13.9336 5.49 14.0809 5.93182C13.1318 5.82545 11.9209 5.49818 11.0618 4.59C10.3418 3.82091 9.99 2.75727 10.0145 1.41545L10.0227 1.40727ZM4.85182 16.5927C2.95364 16.5927 1.40727 15.0791 1.40727 13.2218C1.40727 11.8555 1.89 11.1436 2.84727 11.1109C2.84727 11.1109 2.86364 11.1109 2.87182 11.1109C2.98636 11.1109 3.10909 11.1436 3.32182 11.2091C3.66545 11.3073 4.13182 11.4464 4.86 11.4464C5.58818 11.4464 6.03 11.3236 6.34091 11.2336C6.52091 11.1764 6.61091 11.1518 6.72545 11.1518C7.15909 11.1518 7.51091 11.2827 7.77273 11.5445C8.11636 11.8882 8.30455 12.4691 8.30455 13.2218C8.30455 15.0791 6.75818 16.5927 4.86 16.5927H4.85182ZM11.0945 9.67091C10.2355 9.70363 9.52364 10.0473 9.03273 10.6773C9.00818 10.71 8.98364 10.7427 8.95909 10.7755C8.90182 10.7018 8.83636 10.6282 8.77091 10.5627C8.24727 10.0391 7.53545 9.76091 6.72545 9.76091C6.40636 9.76091 6.16091 9.83454 5.94818 9.9C5.83364 9.93273 5.71909 9.96545 5.58818 9.99818C5.68636 7.57636 6.36545 5.42454 7.60909 3.6C7.95273 3.09273 8.29636 2.68364 8.60727 2.35636C8.83636 4.09091 9.37636 5.76 10.2355 7.34727C10.7509 8.30454 11.3155 9.12273 11.8227 9.77727C11.61 9.72 11.3809 9.67091 11.1109 9.68727L11.0945 9.67091Z" fill="currentColor"/>
</svg>
