<svg viewBox="0 0 18 18" fill="none" xmlns="http://www.w3.org/2000/svg">
<path vector-effect="non-scaling-stroke" d="M17.2965 7.87905C17.2392 7.87905 17.182 7.87905 17.1247 7.87905C16.6174 7.87905 16.1347 7.97723 15.6765 8.13268C16.2165 6.8645 16.462 5.5145 16.4129 4.15632C16.4047 3.92723 16.282 3.72269 16.0938 3.59996C15.9056 3.47723 15.6683 3.45269 15.4556 3.5345C14.842 3.77996 14.2202 4.13996 13.6474 4.58178C13.7783 3.21541 13.5902 1.77541 12.7883 0.368141C12.6902 0.196323 12.5183 0.0735953 12.3302 0.0245044C12.1338 -0.0164047 11.9292 0.0245044 11.7656 0.13905C11.7083 0.179959 10.4647 1.08814 9.36834 2.80632C8.63198 1.17814 7.71561 0.253595 7.66652 0.212686C7.51107 0.0572317 7.29834 -0.00822286 7.08561 0.0163226C6.87288 0.040868 6.6847 0.171777 6.57016 0.351777C6.02197 1.26814 5.63743 2.21723 5.43288 3.13359C5.01561 2.7245 4.55743 2.32359 4.04198 1.93905C3.86198 1.79996 3.6247 1.75905 3.40379 1.83269C3.18288 1.90632 3.01925 2.07814 2.94561 2.29087C2.58561 3.46905 2.60197 5.12178 3.01107 6.71723C3.01107 6.71723 3.01107 6.72541 3.01107 6.73359C2.98652 6.72541 2.96197 6.71723 2.93743 6.70087C1.86561 6.25087 0.630157 6.75814 0.171975 7.82996C-0.278025 8.90178 0.229248 10.1372 1.30107 10.5954C1.66107 10.7427 2.07016 10.579 2.22561 10.219C2.37288 9.85905 2.20925 9.44996 1.84925 9.2945C1.48925 9.14723 1.32561 8.72996 1.47288 8.36996C1.62016 8.00996 2.03743 7.84632 2.39743 7.99359C3.14198 8.3045 3.41198 8.70541 3.82107 9.31087C4.02561 9.62178 4.26288 9.96541 4.59016 10.3336C4.50016 10.3745 4.42652 10.4318 4.36107 10.5136C4.23016 10.669 4.17288 10.8818 4.20561 11.0863L5.26107 17.4109C5.31834 17.7463 5.61288 18 5.95652 18H12.6902C13.0338 18 13.3283 17.7545 13.3856 17.4109L13.582 16.249C13.6474 15.8645 13.3856 15.5045 13.0011 15.439C12.6165 15.3736 12.2565 15.6354 12.1911 16.02L12.0929 16.5927H6.53743L5.71925 11.6672H12.9192L12.7065 12.96C12.6411 13.3445 12.9029 13.7045 13.2874 13.77C13.3283 13.77 13.3692 13.7781 13.402 13.7781C13.7374 13.7781 14.0402 13.5327 14.0974 13.189L14.4492 11.0781V11.0618C14.4492 11.0454 14.4492 11.0372 14.4492 11.0209C14.4492 11.0045 14.4492 10.9963 14.4492 10.98V10.9636C14.4492 10.9636 14.4492 10.9636 14.4492 10.9554C14.4492 10.939 14.4492 10.9309 14.4492 10.9145C14.4492 10.9063 14.4492 10.8981 14.4492 10.8818C14.4492 10.8654 14.4492 10.8572 14.4492 10.8409C14.4492 10.8327 14.4492 10.8245 14.4492 10.8081C14.4492 10.8 14.4492 10.7836 14.4411 10.7754C14.4411 10.7672 14.4411 10.7509 14.4329 10.7427C14.4329 10.7345 14.4329 10.7263 14.4247 10.71C14.4247 10.7018 14.4165 10.6854 14.4083 10.6772C14.4083 10.669 14.4002 10.6609 14.392 10.6527C14.392 10.6445 14.3838 10.6281 14.3756 10.62C14.3756 10.6118 14.3674 10.6036 14.3592 10.5954C14.3592 10.5872 14.3429 10.5709 14.3429 10.5627C14.3429 10.5545 14.3265 10.5463 14.3265 10.5381C15.0629 9.9245 16.1511 9.22905 17.2556 9.27814C17.6402 9.2945 17.9756 8.99178 17.992 8.60723C18.0083 8.22269 17.7056 7.88723 17.3211 7.87087L17.2965 7.87905ZM6.63561 10.2681C6.63561 10.2681 6.5947 10.2354 6.57016 10.219C6.44743 10.1372 6.33288 10.0554 6.22652 9.96541C4.58198 8.18178 3.9847 5.6045 4.09107 3.81269C5.39198 4.99087 6.39016 6.39814 7.06925 8.00996C7.48652 8.99996 7.6747 9.82632 7.75652 10.2681H6.63561ZM7.88743 6.4145C7.88743 6.4145 7.88743 6.43087 7.88743 6.43905C7.56834 5.83359 7.15925 5.17905 6.65198 4.51632C6.65198 4.51632 6.65198 4.49996 6.65198 4.49178C6.6847 3.70632 6.90561 2.83905 7.29016 1.97996C7.6747 2.53632 8.15743 3.38723 8.4847 4.46723C8.22288 5.09723 8.02652 5.74359 7.89561 6.40632L7.88743 6.4145ZM13.7702 8.74632C13.492 9.2045 13.1974 9.57269 12.9602 9.85087C12.7883 10.0145 12.6411 10.1536 12.5347 10.2681H9.26198C8.82834 7.92814 9.21288 5.73541 10.4156 3.75541C10.9311 2.9045 11.4956 2.26632 11.9211 1.84905C12.7147 3.99269 11.9865 6.20178 11.1356 8.11632C10.9802 8.46814 11.1356 8.88541 11.4956 9.04087C11.8474 9.19632 12.2647 9.04087 12.4202 8.68087C12.6329 8.2145 12.8374 7.71541 13.0174 7.19178C13.0583 7.15905 13.0911 7.11814 13.1238 7.06905C13.5656 6.43905 14.2365 5.80905 14.9565 5.35087C14.8338 6.52905 14.4329 7.66632 13.7702 8.73814V8.74632Z" fill="currentColor"/>
</svg>
