<svg viewBox="0 0 18 17" fill="none" xmlns="http://www.w3.org/2000/svg">
<path vector-effect="non-scaling-stroke" d="M14.0642 8.12455C13.9169 8.12455 13.7778 8.17364 13.6633 8.24727C13.5242 8.34546 12.3787 9.22091 12.2233 11.7736C9.00781 11.1191 6.57781 8.27182 6.57781 4.86818V2.89636C6.95417 1.92273 8.26327 1.40727 9.07327 1.40727H9.17963V4.63909C9.17963 6.01364 9.76054 7.33091 10.7833 8.25546C11.0696 8.51727 11.5114 8.49273 11.7733 8.20636C12.0351 7.92 12.0105 7.47818 11.7242 7.21636C10.996 6.56182 10.5869 5.62091 10.5869 4.63909V0.703636C10.5869 0.319091 10.276 0 9.88327 0H9.07327C8.41054 0 7.6169 0.212727 6.96236 0.564546C6.28327 0.932727 5.75963 1.43182 5.44054 2.02091C2.65054 2.36455 1.60327 2.78182 1.48872 2.83091C1.2269 2.93727 1.06327 3.19909 1.06327 3.47727V3.67364C1.06327 5.41636 0.785085 7.21636 0.245085 9.01637C0.0896307 9.54 0.0078125 10.0882 0.0078125 10.6364V14.0645C0.0078125 15.2264 0.956903 16.1755 2.11872 16.1755H15.8887C17.0505 16.1755 17.9996 15.2264 17.9996 14.0645V12.06C17.9996 9.89182 16.2324 8.12455 14.0642 8.12455ZM14.3424 9.54818C15.5614 9.67909 16.5269 10.6855 16.5924 11.9209H13.6224C13.696 10.53 14.1214 9.82637 14.3424 9.54818ZM1.5869 9.42546C2.13508 7.60091 2.42963 5.77636 2.46236 4.00091C2.92054 3.87 3.78781 3.67364 5.17054 3.47727V4.87636C5.17054 7.13455 6.04599 9.26182 7.64963 10.8573C8.05054 11.2582 8.49236 11.6182 8.95054 11.9291H1.4069V10.6445C1.4069 10.2355 1.46418 9.82636 1.5869 9.43364V9.42546ZM15.8969 14.7682H2.11054C1.72599 14.7682 1.4069 14.4491 1.4069 14.0645V13.3282H16.5924V14.0645C16.5924 14.4491 16.2733 14.7682 15.8887 14.7682H15.8969ZM7.91145 5.37546C7.5269 5.37546 7.20781 5.06455 7.20781 4.67182C7.20781 4.27909 7.51872 3.96818 7.91145 3.96818C8.30417 3.96818 8.61508 4.27909 8.61508 4.67182C8.61508 5.06455 8.30417 5.37546 7.91145 5.37546ZM7.87872 7.48636C7.87872 7.10182 8.18963 6.78273 8.58236 6.78273C8.97508 6.78273 9.28599 7.09364 9.28599 7.48636C9.28599 7.87909 8.97508 8.19 8.58236 8.19C8.18963 8.19 7.87872 7.87909 7.87872 7.48636ZM10.5133 8.92636C10.8978 8.92636 11.2169 9.23727 11.2169 9.63C11.2169 10.0227 10.906 10.3336 10.5133 10.3336C10.1205 10.3336 9.80963 10.0227 9.80963 9.63C9.80963 9.23727 10.1205 8.92636 10.5133 8.92636Z" fill="currentColor"/>
</svg>
