<svg viewBox="0 0 18 17" fill="none" xmlns="http://www.w3.org/2000/svg">
<path vector-effect="non-scaling-stroke" d="M17.2964 10.44C16.9118 10.44 16.5927 10.7509 16.5927 11.1436V12.1991C16.5927 13.0255 15.5045 13.6064 14.85 13.8845C13.7782 14.3427 12.3218 14.6455 10.6855 14.7764V10.9473C12.7145 10.7673 14.2773 10.3909 15.4473 9.81C16.2491 9.40909 16.8709 8.90182 17.2964 8.30455C17.7627 7.64182 18 6.87273 18 6.00545C18 4.54091 16.8218 3.01909 14.7764 1.84091C12.7227 0.654545 10.1373 0 7.48636 0C7.32273 0 7.15909 0.0572727 7.02818 0.171818L4.35273 2.45455C4.20545 2.58545 4.11545 2.76545 4.10727 2.96182C4.09909 3.15818 4.17273 3.34636 4.32 3.48545L5.35909 4.50818C4.25455 4.63909 3.23182 4.88455 2.38909 5.22C0.850909 5.83364 0 6.73364 0 7.74V12.5427C0 13.5491 0.621818 14.8991 3.54273 15.66C3.64909 15.84 3.78818 16.0036 3.95182 16.1509C4.34455 16.5027 4.85182 16.6909 5.37545 16.6909C5.45727 16.6909 5.53909 16.6909 5.62091 16.6745L9.66273 16.2082C9.71182 16.2164 9.75273 16.2245 9.80182 16.2245C9.80182 16.2245 9.81818 16.2245 9.82636 16.2245C12.0355 16.1509 13.9582 15.7827 15.3982 15.1773C17.5418 14.2609 17.9918 13.05 17.9918 12.1991V11.1436C17.9918 10.7591 17.6809 10.44 17.2882 10.44H17.2964ZM2.91273 6.52909C4.09091 6.05455 5.67 5.80091 7.34727 5.80091C10.2436 5.80091 12.33 6.57 13.0336 7.28182C13.3036 7.56 13.7536 7.56 14.0318 7.28182C14.31 7.01182 14.31 6.56182 14.0318 6.28364C12.8864 5.13 10.26 4.38545 7.34727 4.38545C7.31455 4.38545 7.28182 4.38545 7.24909 4.38545L5.85818 3.01091L7.74818 1.39909C10.0309 1.44 12.33 2.03727 14.0809 3.04364C15.6355 3.93545 16.6009 5.06455 16.6009 5.98909C16.6009 6.78273 16.6009 9.20455 9.67091 9.60545C9.64636 9.60545 9.62182 9.60545 9.59727 9.60545L5.62909 9.14727C5.20364 9.09818 4.77818 9.18 4.40182 9.36818C3.44455 9.17182 2.64273 8.87727 2.08636 8.52545C1.65273 8.25546 1.40727 7.96091 1.40727 7.73182C1.40727 7.44545 1.8 6.96273 2.91273 6.52091V6.52909ZM1.40727 12.5509V9.77727C1.93091 10.0964 2.59364 10.3664 3.35455 10.5791C3.27273 10.8082 3.23182 11.0455 3.23182 11.2909V14.1136C2.34 13.8109 1.40727 13.3118 1.40727 12.5591V12.5509ZM5.46545 15.2836C5.25273 15.3082 5.04818 15.2427 4.89273 15.1036C4.73727 14.9645 4.64727 14.7682 4.64727 14.5555V13.6391H6.89727C7.28182 13.6391 7.60091 13.3282 7.60091 12.9355C7.60091 12.5427 7.29 12.2318 6.89727 12.2318H4.64727V11.2827C4.64727 11.07 4.73727 10.8736 4.89273 10.7345C5.03182 10.6118 5.20364 10.5464 5.37545 10.5464C5.40818 10.5464 5.43273 10.5464 5.46545 10.5464L9.28636 10.9882V14.8336L5.46545 15.2755V15.2836ZM15.6109 11.8473C15.6109 12.2318 15.3 12.5509 14.9073 12.5509C14.5145 12.5509 14.2036 12.24 14.2036 11.8473C14.2036 11.4545 14.5145 11.1436 14.9073 11.1436C15.3 11.1436 15.6109 11.4545 15.6109 11.8473ZM12.4855 11.8473C12.87 11.8473 13.1891 12.1582 13.1891 12.5509C13.1891 12.9436 12.8782 13.2545 12.4855 13.2545C12.0927 13.2545 11.7818 12.9436 11.7818 12.5509C11.7818 12.1582 12.0927 11.8473 12.4855 11.8473Z" fill="currentColor"/>
</svg>
