<svg viewBox="0 0 18 18" fill="none" xmlns="http://www.w3.org/2000/svg">
<path vector-effect="non-scaling-stroke" d="M16.4536 8.65557L15.93 8.18921V5.69375C15.93 5.30921 15.6191 4.99012 15.2263 4.99012H14.58C14.4163 4.03284 13.8518 2.98557 13.0091 2.07739C11.8882 0.882843 10.4809 0.146479 9.0327 -0.000793304C8.78725 -0.0253388 8.54179 0.0810249 8.39452 0.28557C8.24725 0.490116 8.2227 0.751934 8.32088 0.981025C8.38634 1.12012 8.29634 1.3083 8.24725 1.41466C8.00998 1.8483 7.33907 2.37193 6.43907 2.50284C4.87634 2.73193 3.85361 3.67284 3.68179 4.99012H2.81452C2.42998 4.99012 2.11088 5.30103 2.11088 5.69375V8.18103L1.5627 8.64739C1.5627 8.64739 1.5627 8.64739 1.55452 8.65557C0.719975 9.38375 0.188157 10.3901 0.0408846 11.4783C-0.106388 12.5665 0.147248 13.671 0.752703 14.5956C1.25179 15.3565 1.76725 16.0847 2.27452 16.7719C2.79816 17.4756 3.64088 17.8928 4.52452 17.8928H13.4836C14.3672 17.8928 15.2018 17.4756 15.7336 16.7719C15.9627 16.461 15.9054 16.0192 15.5945 15.7901C15.2836 15.5528 14.8418 15.6183 14.6127 15.9292C14.3509 16.281 13.9336 16.4856 13.4918 16.4856H4.52452C4.0827 16.4856 3.66543 16.281 3.40361 15.9292C2.90452 15.2665 2.41361 14.5628 1.93088 13.8265C1.06361 12.501 1.2927 10.7747 2.47907 9.71921L3.07634 9.21194H12.4118C12.7963 9.21194 13.1154 8.90103 13.1154 8.5083C13.1154 8.11557 12.8045 7.80466 12.4118 7.80466H3.51816V6.39739H14.5227V8.5083C14.5227 8.71284 14.6127 8.90103 14.76 9.03194L15.5291 9.71103C16.6254 10.6847 16.92 12.2638 16.2409 13.5565C16.0609 13.9001 16.1918 14.3256 16.5354 14.5056C16.8791 14.6856 17.3045 14.5547 17.4845 14.211C18.4663 12.3456 18.0409 10.0628 16.4618 8.65557H16.4536ZM6.63543 3.89375C7.85452 3.71375 8.96725 3.01012 9.47452 2.09375C9.5727 1.92193 9.64634 1.74193 9.68725 1.56193C11.4218 2.10193 12.7963 3.72193 13.1318 4.99012H5.10543C5.30997 4.21284 6.11998 3.96739 6.63543 3.89375Z" fill="currentColor"/>
</svg>
