<svg viewBox="0 0 18 18" fill="none" xmlns="http://www.w3.org/2000/svg">
<path vector-effect="non-scaling-stroke" d="M18 2.5312C18 2.24245 17.8238 1.9837 17.5538 1.8787C17.115 1.7062 13.2337 0.187446 12.0863 0.00744629C12.0787 0.00744629 12.0712 0.00744629 12.0637 0.00744629C12.0562 0.00744629 12.0525 0.00744629 12.0487 0.00744629C12.0263 0.00744629 12.0075 0.00744629 11.985 0.00744629C11.985 0.00744629 11.985 0.00744629 11.9813 0.00744629H6.03C6.03 0.00744629 6.03 0.00744629 6.02625 0.00744629C6.0075 0.00744629 5.985 0.00744629 5.9625 0.00744629C5.955 0.00744629 5.95125 0.00744629 5.9475 0.00744629C5.94 0.00744629 5.9325 0.00744629 5.925 0.00744629C4.77 0.187446 0.88875 1.7062 0.45 1.8787C0.18 1.9837 0 2.24245 0 2.5312V6.95995C0 7.1737 0.09375 7.3762 0.2625 7.5112C0.38625 7.61245 0.54375 7.66495 0.70125 7.66495C0.75375 7.66495 0.80625 7.65745 0.85875 7.6462L3.0225 7.1437V15.1874C3.0225 16.7399 4.2825 17.9999 5.835 17.9999H12.1613C13.7137 17.9999 14.9738 16.7399 14.9738 15.1874C14.9738 14.7974 14.6587 14.4862 14.2687 14.4862C13.8787 14.4862 13.5675 14.8012 13.5675 15.1874C13.5675 15.9637 12.9375 16.5937 12.1613 16.5937H5.83875C5.0625 16.5937 4.4325 15.9637 4.4325 15.1874V4.49995C4.4325 4.10995 4.1175 3.7987 3.73125 3.7987C3.345 3.7987 3.02625 4.1137 3.02625 4.49995V5.69995L1.40625 6.07495V3.01495C2.83875 2.45995 4.77375 1.7512 5.7375 1.4887L8.41125 5.0287C8.4525 5.09245 8.50875 5.15245 8.5725 5.20495C8.6925 5.29495 8.8275 5.33995 8.96625 5.34745C8.9775 5.34745 8.98875 5.34745 9 5.34745C9.01125 5.34745 9.0225 5.34745 9.03 5.34745C9.16875 5.33995 9.30375 5.29495 9.42375 5.20495C9.49125 5.1562 9.54375 5.0962 9.585 5.0287L12.2587 1.4887C13.2187 1.74745 15.1575 2.45995 16.5863 3.01495V6.0787L14.97 5.7037V4.5037C14.97 4.1137 14.655 3.80245 14.265 3.80245C13.875 3.80245 13.5637 4.11745 13.5637 4.5037V11.6737C13.5637 12.0637 13.8788 12.3749 14.265 12.3749C14.6512 12.3749 14.97 12.0599 14.97 11.6737V7.1437L17.1337 7.6462C17.1862 7.65745 17.2388 7.66495 17.2913 7.66495C17.4487 7.66495 17.6025 7.61245 17.73 7.5112C17.8988 7.3762 17.9963 7.1737 17.9963 6.95995V2.5312H18ZM10.5638 1.4062L9 3.47245L7.43625 1.4062C7.8525 1.4062 10.1213 1.4062 10.56 1.4062H10.5638Z" fill="currentColor"/>
</svg>
