<svg viewBox="0 0 48 48" fill="none" xmlns="http://www.w3.org/2000/svg">
<path vector-effect="non-scaling-stroke" d="M20.9803 4.46L11.0003 8.19999C8.70031 9.05999 6.82031 11.78 6.82031 14.24V29.0999C6.82031 31.4599 8.38033 34.56 10.2803 35.98L18.8803 42.4C21.7003 44.52 26.3403 44.52 29.1603 42.4L37.7603 35.98C39.6603 34.56 41.2203 31.4599 41.2203 29.0999V14.24C41.2203 11.78 39.3403 9.05999 37.0403 8.19999L27.0603 4.46C25.3603 3.84 22.6403 3.84 20.9803 4.46Z" stroke="currentColor" stroke-width="1.5" stroke-linecap="round" stroke-linejoin="round"/>
<path vector-effect="non-scaling-stroke" d="M24.0004 21.84C23.9204 21.84 23.8204 21.84 23.7404 21.84C21.8604 21.78 20.3604 20.22 20.3604 18.32C20.3604 16.38 21.9404 14.8 23.8804 14.8C25.8204 14.8 27.4004 16.38 27.4004 18.32C27.3804 20.24 25.8804 21.78 24.0004 21.84Z" stroke="currentColor" stroke-width="1.5" stroke-linecap="round" stroke-linejoin="round"/>
<path vector-effect="non-scaling-stroke" d="M20.0201 27.44C18.1001 28.72 18.1001 30.82 20.0201 32.1C22.2001 33.56 25.7801 33.56 27.9601 32.1C29.8801 30.82 29.8801 28.72 27.9601 27.44C25.8001 25.98 22.2201 25.98 20.0201 27.44Z" stroke="currentColor" stroke-width="1.5" stroke-linecap="round" stroke-linejoin="round"/>
</svg>
