<svg viewBox="0 0 22 22" fill="none" xmlns="http://www.w3.org/2000/svg">
<g clip-path="url(#clip0_19_1834)">
<path d="M22 3.09386C22 2.74094 21.7846 2.42469 21.4546 2.29636C20.9183 2.08553 16.1746 0.229277 14.7721 0.00927734C14.7629 0.00927734 14.7537 0.00927734 14.7446 0.00927734C14.7354 0.00927734 14.7308 0.00927734 14.7263 0.00927734C14.6988 0.00927734 14.6758 0.00927734 14.6483 0.00927734C14.6483 0.00927734 14.6483 0.00927734 14.6438 0.00927734H7.37C7.37 0.00927734 7.37 0.00927734 7.36542 0.00927734C7.3425 0.00927734 7.315 0.00927734 7.2875 0.00927734C7.27833 0.00927734 7.27375 0.00927734 7.26917 0.00927734C7.26 0.00927734 7.25083 0.00927734 7.24167 0.00927734C5.83 0.229277 1.08625 2.08553 0.55 2.29636C0.22 2.42469 0 2.74094 0 3.09386V8.50678C0 8.76803 0.114583 9.01553 0.320833 9.18053C0.472083 9.30428 0.664583 9.36845 0.857083 9.36845C0.92125 9.36845 0.985417 9.35928 1.04958 9.34553L3.69417 8.73136V18.5626C3.69417 20.4601 5.23417 22.0001 7.13167 22.0001H14.8638C16.7612 22.0001 18.3013 20.4601 18.3013 18.5626C18.3013 18.0859 17.9163 17.7055 17.4396 17.7055C16.9629 17.7055 16.5825 18.0905 16.5825 18.5626C16.5825 19.5114 15.8125 20.2814 14.8638 20.2814H7.13625C6.1875 20.2814 5.4175 19.5114 5.4175 18.5626V5.50011C5.4175 5.02344 5.0325 4.64303 4.56042 4.64303C4.08833 4.64303 3.69875 5.02803 3.69875 5.50011V6.96678L1.71875 7.42511V3.68511C3.46958 3.00678 5.83458 2.14053 7.0125 1.81969L10.2804 6.14636C10.3308 6.22428 10.3996 6.29761 10.4775 6.36178C10.6242 6.47178 10.7892 6.52678 10.9587 6.53594C10.9725 6.53594 10.9862 6.53594 11 6.53594C11.0138 6.53594 11.0275 6.53594 11.0367 6.53594C11.2063 6.52678 11.3713 6.47178 11.5179 6.36178C11.6004 6.30219 11.6646 6.22886 11.715 6.14636L14.9829 1.81969C16.1562 2.13594 18.5258 3.00678 20.2721 3.68511V7.42969L18.2967 6.97136V5.50469C18.2967 5.02803 17.9117 4.64761 17.435 4.64761C16.9583 4.64761 16.5779 5.03261 16.5779 5.50469V14.268C16.5779 14.7447 16.9629 15.1251 17.435 15.1251C17.9071 15.1251 18.2967 14.7401 18.2967 14.268V8.73136L20.9412 9.34553C21.0054 9.35928 21.0696 9.36845 21.1338 9.36845C21.3263 9.36845 21.5142 9.30428 21.67 9.18053C21.8762 9.01553 21.9954 8.76803 21.9954 8.50678V3.09386H22ZM12.9113 1.71886L11 4.24428L9.08875 1.71886C9.5975 1.71886 12.3704 1.71886 12.9067 1.71886H12.9113Z" fill="currentColor"/>
</g>
</svg>
