<svg  viewBox="0 0 28 28" fill="none" xmlns="http://www.w3.org/2000/svg">
<path vector-effect="non-scaling-stroke" d="M24.5119 13.0898V18.3282C24.5119 23.5665 22.4235 25.6665 17.1735 25.6665H10.8853C10.2086 25.6665 9.59022 25.6316 9.01855 25.5499" stroke="currentColor" stroke-width="1.5" stroke-linecap="round" stroke-linejoin="round"/>
<path vector-effect="non-scaling-stroke" d="M3.54688 18.1066V13.0898" stroke="currentColor" stroke-width="1.5" stroke-linecap="round" stroke-linejoin="round"/>
<path vector-effect="non-scaling-stroke" d="M14.0352 14.0002C16.1702 14.0002 17.7452 12.2619 17.5352 10.1269L16.7535 2.3335H11.3052L10.5235 10.1269C10.3135 12.2619 11.9002 14.0002 14.0352 14.0002Z" stroke="currentColor" stroke-width="1.5" stroke-linecap="round" stroke-linejoin="round"/>
<path vector-effect="non-scaling-stroke" d="M21.3849 14.0002C23.7416 14.0002 25.4682 12.0868 25.2349 9.7418L24.9082 6.53347C24.4882 3.50013 23.3215 2.3335 20.2649 2.3335H16.7065L17.5232 10.5118C17.7332 12.4368 19.4599 14.0002 21.3849 14.0002Z" stroke="currentColor" stroke-width="1.5" stroke-linecap="round" stroke-linejoin="round"/>
<path vector-effect="non-scaling-stroke" d="M6.61508 14.0002C8.54008 14.0002 10.2784 12.4368 10.4651 10.5118L10.7218 7.93355L11.2818 2.3335H7.72343C4.66677 2.3335 3.50012 3.50013 3.08012 6.53347L2.75342 9.7418C2.52009 12.0868 4.25842 14.0002 6.61508 14.0002Z" stroke="currentColor" stroke-width="1.5" stroke-linecap="round" stroke-linejoin="round"/>
<path vector-effect="non-scaling-stroke" d="M10.4998 22.1667C10.4998 23.0417 10.2548 23.8701 9.82315 24.5701C9.60148 24.9434 9.33315 25.2817 9.01815 25.55C8.98315 25.5967 8.94818 25.6317 8.90151 25.6667C8.08484 26.4017 7.0115 26.8333 5.83317 26.8333C4.40984 26.8333 3.13814 26.1916 2.29814 25.1883C2.2748 25.1533 2.23987 25.13 2.21653 25.095C2.07653 24.9317 1.94819 24.7567 1.84319 24.5701C1.41152 23.8701 1.1665 23.0417 1.1665 22.1667C1.1665 20.6967 1.84317 19.3783 2.9165 18.5267C3.11484 18.3633 3.32481 18.2234 3.54648 18.1067C4.22314 17.7217 5.00484 17.5 5.83317 17.5C6.99984 17.5 8.04981 17.92 8.86648 18.6316C9.00648 18.7366 9.13483 18.865 9.2515 18.9934C10.0215 19.8334 10.4998 20.9417 10.4998 22.1667Z" stroke="currentColor" stroke-width="1.5" stroke-miterlimit="10" stroke-linecap="round" stroke-linejoin="round"/>
<path vector-effect="non-scaling-stroke" d="M7.57186 22.1431H4.09521" stroke="currentColor" stroke-width="1.5" stroke-miterlimit="10" stroke-linecap="round" stroke-linejoin="round"/>
<path vector-effect="non-scaling-stroke" d="M5.8335 20.4399V23.9283" stroke="currentColor" stroke-width="1.5" stroke-miterlimit="10" stroke-linecap="round" stroke-linejoin="round"/>
</svg>
