<svg  viewBox="0 0 54 54" fill="none" xmlns="http://www.w3.org/2000/svg">
<path vector-effect="non-scaling-stroke" d="M4.5 4.5H8.41501C10.845 4.5 12.7575 6.5925 12.555 9L10.6875 31.41C10.3725 35.0775 13.275 38.2275 16.965 38.2275H40.9275C44.1675 38.2275 47.0025 35.5725 47.25 32.355L48.465 15.48C48.735 11.745 45.9 8.70749 42.1425 8.70749H13.095" stroke="currentColor" stroke-width="1.5" stroke-miterlimit="10" stroke-linecap="round" stroke-linejoin="round"/>
<path vector-effect="non-scaling-stroke" d="M36.5625 49.5C38.1158 49.5 39.375 48.2408 39.375 46.6875C39.375 45.1342 38.1158 43.875 36.5625 43.875C35.0092 43.875 33.75 45.1342 33.75 46.6875C33.75 48.2408 35.0092 49.5 36.5625 49.5Z" stroke="currentColor" stroke-width="1.5" stroke-miterlimit="10" stroke-linecap="round" stroke-linejoin="round"/>
<path vector-effect="non-scaling-stroke" d="M18.5625 49.5C20.1158 49.5 21.375 48.2408 21.375 46.6875C21.375 45.1342 20.1158 43.875 18.5625 43.875C17.0092 43.875 15.75 45.1342 15.75 46.6875C15.75 48.2408 17.0092 49.5 18.5625 49.5Z" stroke="currentColor" stroke-width="1.5" stroke-miterlimit="10" stroke-linecap="round" stroke-linejoin="round"/>
<path vector-effect="non-scaling-stroke" d="M20.25 18H47.25" stroke="currentColor" stroke-width="1.5" stroke-miterlimit="10" stroke-linecap="round" stroke-linejoin="round"/>
</svg>
