<svg viewBox="0 0 16 16" fill="none" xmlns="http://www.w3.org/2000/svg">
<path vector-effect="non-scaling-stroke" d="M9.25 10.7495L2.5 10.7495" stroke="currentColor" stroke-linecap="round" stroke-linejoin="round"/>
<path vector-effect="non-scaling-stroke" d="M13.5 10.7495L11.75 10.7495" stroke="currentColor" stroke-linecap="round" stroke-linejoin="round"/>
<path vector-effect="non-scaling-stroke" d="M10.5 11.9995C11.1904 11.9995 11.75 11.4399 11.75 10.7495C11.75 10.0592 11.1904 9.49951 10.5 9.49951C9.80964 9.49951 9.25 10.0592 9.25 10.7495C9.25 11.4399 9.80964 11.9995 10.5 11.9995Z" stroke="currentColor" stroke-linecap="round" stroke-linejoin="round"/>
<path vector-effect="non-scaling-stroke" d="M5.25 5.24959L2.5 5.24951" stroke="currentColor" stroke-linecap="round" stroke-linejoin="round"/>
<path vector-effect="non-scaling-stroke" d="M13.5 5.24951L7.75 5.24959" stroke="currentColor" stroke-linecap="round" stroke-linejoin="round"/>
<path vector-effect="non-scaling-stroke" d="M6.5 6.49951C7.19036 6.49951 7.75 5.93987 7.75 5.24951C7.75 4.55916 7.19036 3.99951 6.5 3.99951C5.80964 3.99951 5.25 4.55916 5.25 5.24951C5.25 5.93987 5.80964 6.49951 6.5 6.49951Z" stroke="currentColor" stroke-linecap="round" stroke-linejoin="round"/>
</svg>
