<svg viewBox="0 0 36 36" fill="none" xmlns="http://www.w3.org/2000/svg">
<path d="M18 31.5C25.4558 31.5 31.5 25.4558 31.5 18C31.5 10.5442 25.4558 4.5 18 4.5C10.5442 4.5 4.5 10.5442 4.5 18C4.5 25.4558 10.5442 31.5 18 31.5Z" stroke="currentColor" stroke-linecap="round" stroke-linejoin="round"/>
<path d="M11.25 24.1875L13.5 21.375L15.75 24.1875L18 21.375L20.25 24.1875L22.5 21.375L24.75 24.1875" stroke="currentColor" stroke-linecap="round" stroke-linejoin="round"/>
<path d="M12.9375 16.3125C13.5588 16.3125 14.0625 15.8088 14.0625 15.1875C14.0625 14.5662 13.5588 14.0625 12.9375 14.0625C12.3162 14.0625 11.8125 14.5662 11.8125 15.1875C11.8125 15.8088 12.3162 16.3125 12.9375 16.3125Z" fill="currentColor"/>
<path d="M23.0625 16.3125C23.6838 16.3125 24.1875 15.8088 24.1875 15.1875C24.1875 14.5662 23.6838 14.0625 23.0625 14.0625C22.4412 14.0625 21.9375 14.5662 21.9375 15.1875C21.9375 15.8088 22.4412 16.3125 23.0625 16.3125Z" fill="currentColor"/>
</svg>
