<svg viewBox="0 0 64 64" fill="none" xmlns="http://www.w3.org/2000/svg">
<path vector-effect="non-scaling-stroke" d="M30.5597 36.6131C34.6982 36.6131 38.0531 33.2582 38.0531 29.1198C38.0531 24.9813 34.6982 21.6265 30.5597 21.6265C26.4213 21.6265 23.0664 24.9813 23.0664 29.1198C23.0664 33.2582 26.4213 36.6131 30.5597 36.6131Z" stroke="currentColor" stroke-width="1.5" stroke-linecap="round" stroke-linejoin="round"/>
<path vector-effect="non-scaling-stroke" d="M44.4007 53.8665C44.4007 47.6532 38.214 42.5864 30.5607 42.5864C22.9074 42.5864 16.7207 47.6265 16.7207 53.8665" stroke="currentColor" stroke-width="1.5" stroke-linecap="round" stroke-linejoin="round"/>
<path vector-effect="non-scaling-stroke" d="M56.0007 33.3333C56.0007 47.3333 44.6673 58.6667 30.6673 58.6667C16.6673 58.6667 5.33398 47.3333 5.33398 33.3333C5.33398 19.3333 16.6673 8 30.6673 8C34.1607 8 37.494 8.69331 40.534 9.97331C40.1873 11.04 40.0007 12.16 40.0007 13.3333C40.0007 15.3333 40.5607 17.2267 41.5473 18.8267C42.0807 19.7333 42.774 20.5599 43.574 21.2533C45.4407 22.9599 47.9207 24 50.6673 24C51.8407 24 52.9607 23.8133 54.0007 23.4399C55.2807 26.4799 56.0007 29.84 56.0007 33.3333Z" stroke="currentColor" stroke-width="1.5" stroke-linecap="round" stroke-linejoin="round"/>
<path vector-effect="non-scaling-stroke" d="M61.3333 13.3332C61.3333 14.1865 61.2267 15.0132 61.0133 15.8132C60.7733 16.8798 60.3467 17.9198 59.7867 18.8265C58.5067 20.9865 56.4533 22.6664 54 23.4398C52.96 23.8131 51.84 23.9998 50.6667 23.9998C47.92 23.9998 45.44 22.9598 43.5733 21.2531C42.7733 20.5598 42.08 19.7332 41.5467 18.8265C40.56 17.2265 40 15.3332 40 13.3332C40 12.1598 40.1867 11.0398 40.5333 9.97314C41.04 8.42648 41.8933 7.0399 43.0133 5.89323C44.96 3.89323 47.68 2.6665 50.6667 2.6665C53.8133 2.6665 56.6667 4.02655 58.5867 6.21322C60.2933 8.10655 61.3333 10.6132 61.3333 13.3332Z" stroke="currentColor" stroke-width="1.5" stroke-miterlimit="10" stroke-linecap="round" stroke-linejoin="round"/>
<path vector-effect="non-scaling-stroke" d="M54.64 13.2798H46.6934" stroke="currentColor" stroke-width="1.5" stroke-miterlimit="10" stroke-linecap="round" stroke-linejoin="round"/>
<path vector-effect="non-scaling-stroke" d="M50.666 9.38672V17.36" stroke="currentColor" stroke-width="1.5" stroke-miterlimit="10" stroke-linecap="round" stroke-linejoin="round"/>
</svg>
