<svg viewBox="0 0 64 64" fill="none" xmlns="http://www.w3.org/2000/svg">
<path vector-effect="non-scaling-stroke" d="M23.9993 50.6667C23.9993 52.6667 23.4393 54.56 22.4527 56.16C20.6127 59.2533 17.226 61.3333 13.3327 61.3333C9.43935 61.3333 6.05269 59.2533 4.21269 56.16C3.22602 54.56 2.66602 52.6667 2.66602 50.6667C2.66602 44.7733 7.43935 40 13.3327 40C19.226 40 23.9993 44.7733 23.9993 50.6667Z" stroke="currentColor" stroke-width="1.5" stroke-miterlimit="10" stroke-linecap="round" stroke-linejoin="round"/>
<path vector-effect="non-scaling-stroke" d="M9.17578 50.6653L11.8158 53.3053L17.4958 48.052" stroke="currentColor" stroke-width="1.5" stroke-linecap="round" stroke-linejoin="round"/>
<path vector-effect="non-scaling-stroke" d="M47.3364 18.7998C46.6964 18.6932 46.0298 18.6665 45.3364 18.6665H18.6698C17.9231 18.6665 17.2031 18.7199 16.5098 18.8265C16.8831 18.0799 17.4164 17.3866 18.0564 16.7466L26.7231 8.05325C30.3764 4.42659 36.2964 4.42659 39.9498 8.05325L44.6164 12.7731C46.3231 14.4531 47.2298 16.5865 47.3364 18.7998Z" stroke="currentColor" stroke-width="1.5" stroke-linecap="round" stroke-linejoin="round"/>
<path vector-effect="non-scaling-stroke" d="M58.6673 32.0001V45.3334C58.6673 53.3334 53.334 58.6667 45.334 58.6667H20.3473C21.174 57.9734 21.894 57.1201 22.454 56.1601C23.4406 54.5601 24.0006 52.6667 24.0006 50.6667C24.0006 44.7734 19.2273 40.0001 13.334 40.0001C10.134 40.0001 7.28065 41.4134 5.33398 43.6267V32.0001C5.33398 24.7467 9.70731 19.6801 16.5073 18.8267C17.2006 18.7201 17.9207 18.6667 18.6673 18.6667H45.334C46.0273 18.6667 46.694 18.6934 47.334 18.8C54.214 19.6 58.6673 24.6934 58.6673 32.0001Z" stroke="currentColor" stroke-width="1.5" stroke-linecap="round" stroke-linejoin="round"/>
<path vector-effect="non-scaling-stroke" d="M58.6673 33.3333H50.6673C47.734 33.3333 45.334 35.7333 45.334 38.6666C45.334 41.5999 47.734 43.9999 50.6673 43.9999H58.6673" stroke="currentColor" stroke-width="1.5" stroke-linecap="round" stroke-linejoin="round"/>
</svg>
