<svg viewBox="0 0 54 54" fill="none" xmlns="http://www.w3.org/2000/svg">
<path vector-effect="non-scaling-stroke" d="M32.0889 34.7366H20.8389" stroke="currentColor" stroke-width="1.5" stroke-miterlimit="10" stroke-linecap="round" stroke-linejoin="round"/>
<path vector-effect="non-scaling-stroke" d="M26.4639 29.2456V40.4956" stroke="currentColor" stroke-width="1.5" stroke-miterlimit="10" stroke-linecap="round" stroke-linejoin="round"/>
<path vector-effect="non-scaling-stroke" d="M28.4852 5.66581L28.4177 5.82331L21.8927 20.9658H15.4802C13.9502 20.9658 12.4877 21.2808 11.1602 21.8433L15.0977 12.4383L15.1877 12.2133L15.3452 11.8533C15.3902 11.7183 15.4352 11.5833 15.5027 11.4708C18.4502 4.65331 21.7802 3.10081 28.4852 5.66581Z" stroke="currentColor" stroke-width="1.5" stroke-linecap="round" stroke-linejoin="round"/>
<path vector-effect="non-scaling-stroke" d="M40.6126 21.4158C39.6001 21.1008 38.5201 20.9658 37.4401 20.9658H21.8926L28.4176 5.82327L28.4851 5.66577C28.8226 5.77827 29.1376 5.93577 29.4751 6.07077L34.4476 8.16327C37.2151 9.31077 39.1501 10.5033 40.3201 11.9433C40.5451 12.2133 40.7251 12.4608 40.8826 12.7533C41.0851 13.0683 41.2426 13.3833 41.3326 13.7208C41.4226 13.9233 41.4901 14.1258 41.5351 14.3058C42.1426 16.1958 41.7826 18.5133 40.6126 21.4158Z" stroke="currentColor" stroke-width="1.5" stroke-linecap="round" stroke-linejoin="round"/>
<path vector-effect="non-scaling-stroke" d="M48.4239 31.9463V36.3338C48.4239 36.7838 48.4014 37.2338 48.3789 37.6838C47.9514 45.5363 43.5639 49.4963 35.2389 49.4963H17.6889C17.1489 49.4963 16.6089 49.4513 16.0914 49.3838C8.93637 48.9113 5.11137 45.0863 4.63887 37.9313C4.57137 37.4138 4.52637 36.8738 4.52637 36.3338V31.9463C4.52637 27.4238 7.27137 23.5313 11.1864 21.8438C12.5364 21.2813 13.9764 20.9663 15.5064 20.9663H37.4664C38.5689 20.9663 39.6489 21.1238 40.6389 21.4163C45.1164 22.7888 48.4239 26.9738 48.4239 31.9463Z" stroke="currentColor" stroke-width="1.5" stroke-linecap="round" stroke-linejoin="round"/>
<path vector-effect="non-scaling-stroke" d="M15.0975 12.4382L11.16 21.8432C7.245 23.5307 4.5 27.4232 4.5 31.9457V25.3532C4.5 18.9632 9.045 13.6307 15.0975 12.4382Z" stroke="currentColor" stroke-width="1.5" stroke-linecap="round" stroke-linejoin="round"/>
<path vector-effect="non-scaling-stroke" d="M48.4168 25.3522V31.9447C48.4168 26.9947 45.1318 22.7872 40.6318 21.4372C41.8018 18.5122 42.1393 16.2172 41.5768 14.3047C41.5318 14.1022 41.4643 13.8997 41.3743 13.7197C45.5593 15.8797 48.4168 20.3122 48.4168 25.3522Z" stroke="currentColor" stroke-width="1.5" stroke-linecap="round" stroke-linejoin="round"/>
</svg>
