<svg viewBox="0 0 64 64" fill="none" xmlns="http://www.w3.org/2000/svg">
<path vector-effect="non-scaling-stroke" d="M28.6712 44.9609V50.3743C28.6712 54.961 24.4045 58.6676 19.1512 58.6676C13.8979 58.6676 9.60449 54.961 9.60449 50.3743V44.9609C9.60449 49.5476 13.8712 52.8009 19.1512 52.8009C24.4045 52.8009 28.6712 49.5209 28.6712 44.9609Z" stroke="currentColor" stroke-width="1" stroke-linecap="round" stroke-linejoin="round"/>
<path vector-effect="non-scaling-stroke" d="M28.6665 37.6265C28.6665 38.9598 28.2932 40.1864 27.6532 41.2531C26.0798 43.8398 22.8531 45.4665 19.1198 45.4665C15.3865 45.4665 12.1598 43.8131 10.5864 41.2531C9.94643 40.1864 9.57324 38.9598 9.57324 37.6265C9.57324 35.3331 10.6399 33.2798 12.3465 31.7865C14.0799 30.2665 16.4531 29.3599 19.0931 29.3599C21.7331 29.3599 24.1065 30.2931 25.8398 31.7865C27.5998 33.2531 28.6665 35.3331 28.6665 37.6265Z" stroke="currentColor" stroke-width="1" stroke-linecap="round" stroke-linejoin="round"/>
<path vector-effect="non-scaling-stroke" d="M28.6712 37.6268V44.9601C28.6712 49.5468 24.4045 52.8001 19.1512 52.8001C13.8979 52.8001 9.60449 49.5201 9.60449 44.9601V37.6268C9.60449 33.0401 13.8712 29.3335 19.1512 29.3335C21.7912 29.3335 24.1646 30.2668 25.8979 31.7601C27.6046 33.2534 28.6712 35.3335 28.6712 37.6268Z" stroke="currentColor" stroke-width="1" stroke-linecap="round" stroke-linejoin="round"/>
<path vector-effect="non-scaling-stroke" d="M58.6669 29.2531V34.7466C58.6669 36.2132 57.4936 37.4131 56.0002 37.4665H50.7735C47.8935 37.4665 45.2536 35.3598 45.0136 32.4798C44.8536 30.7998 45.4935 29.2265 46.6135 28.1331C47.6002 27.1198 48.9602 26.5332 50.4535 26.5332H56.0002C57.4936 26.5865 58.6669 27.7864 58.6669 29.2531Z" stroke="currentColor" stroke-width="1" stroke-linecap="round" stroke-linejoin="round"/>
<path vector-effect="non-scaling-stroke" d="M5.33301 28.0002V22.6668C5.33301 15.4135 9.70635 10.3468 16.5063 9.49349C17.1997 9.38682 17.9197 9.3335 18.6663 9.3335H42.6663C43.3597 9.3335 44.0263 9.36013 44.6663 9.4668C51.5463 10.2668 55.9997 15.3602 55.9997 22.6668V26.5335H50.453C48.9596 26.5335 47.5996 27.1201 46.613 28.1335C45.493 29.2268 44.853 30.8001 45.013 32.4801C45.253 35.3601 47.893 37.4668 50.773 37.4668H55.9997V41.3335C55.9997 49.3335 50.6663 54.6668 42.6663 54.6668H35.9997" stroke="currentColor" stroke-width="1" stroke-linecap="round" stroke-linejoin="round"/>
</svg>
