<svg viewBox="0 0 20 20" fill="none" xmlns="http://www.w3.org/2000/svg">
<path d="M0 20C0.214958 19.214 0.419482 18.4677 0.62317 17.721C0.869016 16.8203 1.11778 15.92 1.35611 15.0171C1.37941 14.92 1.3682 14.8177 1.32439 14.7279C0.364385 12.9848 -0.0530091 11.1157 0.113949 9.14063C0.353116 6.3132 1.59612 3.99081 3.7912 2.19059C5.01206 1.18518 6.4645 0.500279 8.0169 0.197945C12.655 -0.724498 17.1161 1.64881 19.0274 5.82193C19.7407 7.38173 20.0111 9.02209 19.8784 10.7246C19.5449 15.0067 16.3781 18.6514 12.185 19.5864C9.82129 20.1131 7.56027 19.8038 5.40192 18.7098C5.30563 18.6653 5.19723 18.6541 5.09388 18.6781C3.47982 19.0955 1.86742 19.5179 0.255028 19.9399C0.183236 19.9574 0.111027 19.9733 0 20ZM2.39418 17.6325C2.48934 17.6096 2.56113 17.5933 2.63251 17.5745C3.50904 17.3454 4.38557 17.1208 5.26209 16.8821C5.43907 16.8341 5.57305 16.8612 5.72749 16.9526C7.6379 18.0846 9.68105 18.4197 11.8494 17.9318C16.4825 16.8883 19.2878 12.0048 17.8599 7.47857C16.5589 3.35554 12.4421 0.967204 8.20723 1.88547C4.71447 2.64471 1.94715 5.70339 1.77267 9.5622C1.70047 11.1575 2.05066 12.6685 2.88545 14.0333C3.14966 14.4653 3.19599 14.8264 3.04114 15.2964C2.79195 16.0552 2.6108 16.837 2.39418 17.6325Z" fill="currentColor"/>
<path d="M4.93945 7.68217C4.95406 6.85406 5.27754 6.17287 5.86231 5.6048C5.94727 5.51749 6.04911 5.44838 6.16162 5.40167C6.27413 5.35495 6.39497 5.33161 6.51679 5.33307C6.65578 5.33307 6.79602 5.35394 6.93418 5.34017C7.22636 5.31137 7.39331 5.45495 7.49557 5.7033C7.77022 6.36112 8.05405 7.01559 8.30949 7.68092C8.35582 7.80155 8.32869 7.99438 8.25941 8.10666C8.07137 8.3973 7.86562 8.67609 7.64333 8.94145C7.5106 9.10591 7.49975 9.25199 7.60702 9.43231C8.41551 10.7897 9.53955 11.7768 11.0134 12.3591C11.2129 12.438 11.3757 12.4067 11.5122 12.2339C11.7576 11.9242 12.013 11.6228 12.2526 11.3077C12.3904 11.1253 12.5515 11.0572 12.756 11.1516C13.4656 11.4855 14.1701 11.8194 14.8701 12.1696C14.9436 12.2063 15.0116 12.3307 15.0145 12.4171C15.0429 13.1538 14.8288 13.7707 14.1722 14.2002C13.355 14.7345 12.4968 14.7812 11.5844 14.5249C9.24404 13.868 7.50601 12.4046 6.11066 10.4729C5.65153 9.83426 5.22829 9.17644 5.04965 8.39675C4.99371 8.16426 4.97451 7.92134 4.93945 7.68217Z" fill="currentColor"/>
</svg>
