<?xml version="1.0" standalone="no"?>
<!DOCTYPE svg PUBLIC "-//W3C//DTD SVG 20010904//EN"
 "http://www.w3.org/TR/2001/REC-SVG-20010904/DTD/svg10.dtd">
<svg version="1.0" xmlns="http://www.w3.org/2000/svg"
 width="700.000000pt" height="700.000000pt" viewBox="0 0 700.000000 700.000000"
 preserveAspectRatio="xMidYMid meet">
<metadata>
Created by potrace 1.14, written by Peter Selinger 2001-2017
</metadata>
<g transform="translate(0.000000,700.000000) scale(0.100000,-0.100000)"
fill="#000000" stroke="none">
<path d="M3278 6996 c-1 -2 -42 -6 -89 -10 -47 -4 -95 -8 -105 -10 -10 -2 -46
-7 -79 -12 -33 -4 -62 -8 -65 -9 -3 0 -27 -4 -55 -9 -27 -4 -113 -23 -191 -41
-1106 -264 -2006 -1037 -2439 -2095 -59 -144 -120 -330 -151 -460 -16 -71 -54
-255 -58 -282 -3 -18 -7 -49 -11 -69 -6 -40 -10 -74 -22 -199 -15 -160 -8
-604 11 -707 2 -10 7 -43 10 -73 7 -62 12 -94 26 -165 6 -27 12 -59 14 -70 60
-310 206 -695 384 -1010 88 -157 263 -408 362 -519 15 -17 51 -58 80 -91 106
-120 364 -361 461 -429 20 -14 21 -19 12 -65 -25 -129 24 -247 131 -315 57
-37 92 -47 162 -47 77 0 122 16 189 66 l30 22 85 -41 c47 -23 110 -52 140 -64
30 -13 64 -27 75 -32 178 -83 596 -197 825 -225 30 -4 66 -9 80 -11 212 -30
684 -25 897 10 21 4 52 8 68 10 192 24 507 113 764 216 80 32 360 168 411 200
8 5 60 37 115 71 230 141 436 307 648 522 81 82 147 153 147 157 0 5 19 2 43
-6 55 -20 178 -25 239 -9 196 52 328 220 331 420 1 90 -25 171 -80 254 -24 35
-43 67 -43 72 0 5 8 23 18 41 10 18 31 62 46 98 16 36 34 79 42 95 104 238
199 601 240 915 18 140 26 557 14 685 -19 191 -22 220 -25 225 -2 3 -6 30 -10
60 -3 30 -10 71 -15 90 -5 19 -12 51 -15 70 -11 63 -64 263 -94 357 -111 340
-290 690 -498 975 -48 65 -94 126 -102 136 -9 9 -48 55 -88 102 -126 150 -344
356 -513 486 -453 348 -1026 596 -1570 679 -25 4 -53 9 -62 11 -9 1 -43 6 -75
9 -32 4 -76 9 -98 12 -44 5 -541 13 -547 9z m537 -169 c11 -3 47 -8 80 -12 80
-9 171 -23 205 -30 3 -1 25 -5 50 -9 227 -39 558 -151 803 -271 623 -305 1107
-760 1461 -1375 166 -289 303 -670 371 -1030 3 -14 7 -36 9 -50 7 -32 13 -80
22 -155 3 -33 8 -69 11 -80 9 -37 11 -510 2 -585 -4 -41 -11 -100 -14 -130
-32 -300 -153 -718 -291 -1005 -29 -59 -40 -75 -53 -70 -63 26 -156 34 -236
20 -69 -13 -167 -65 -221 -120 -53 -53 -106 -143 -119 -205 -29 -132 5 -282
86 -375 l31 -35 -30 -38 c-49 -62 -279 -280 -383 -363 -337 -271 -708 -472
-1097 -594 -360 -112 -649 -154 -1042 -149 -129 1 -248 5 -265 7 -16 3 -57 8
-90 11 -33 4 -82 11 -110 16 -27 5 -66 12 -85 15 -182 30 -516 125 -645 184
-11 5 -40 18 -65 28 -25 10 -88 39 -140 64 l-96 46 2 55 c4 91 -27 166 -93
230 -89 87 -227 109 -335 54 -66 -33 -49 -41 -201 88 -180 153 -365 349 -509
541 -70 93 -178 251 -178 261 0 2 -15 27 -34 56 -52 82 -162 308 -217 445
-128 319 -194 602 -228 968 -8 91 -6 539 2 585 6 27 14 89 22 160 15 128 75
386 128 550 327 1003 1119 1801 2123 2138 179 61 448 124 584 138 36 3 68 8
71 10 3 2 48 6 100 10 52 4 96 8 98 10 5 4 493 -4 516 -9z"/>
<path d="M3447 6044 c-1 -1 -49 -4 -107 -8 -101 -6 -132 -9 -210 -21 -19 -3
-53 -8 -75 -11 -62 -9 -261 -59 -350 -89 -514 -173 -954 -499 -1270 -940 l-57
-80 -77 0 c-63 0 -86 -5 -134 -29 -182 -89 -226 -327 -87 -475 l31 -34 -30
-91 c-32 -97 -75 -271 -87 -346 -26 -174 -33 -255 -34 -412 -3 -548 177 -1091
509 -1533 90 -119 117 -150 241 -275 163 -164 370 -320 555 -420 44 -24 99
-53 121 -66 161 -87 504 -194 739 -229 39 -6 55 -8 180 -20 73 -7 347 -8 395
-1 19 3 60 8 90 11 30 3 66 7 80 9 14 3 41 7 60 10 48 8 87 15 140 27 25 6 53
12 63 14 41 9 199 60 282 93 474 183 889 511 1177 927 292 423 451 928 451
1435 0 147 -17 359 -38 457 -61 291 -114 449 -223 673 -92 188 -242 413 -364
545 -81 89 -82 90 -63 138 9 23 19 71 22 107 24 312 -263 546 -561 456 -50
-15 -156 -75 -156 -88 0 -14 -16 -9 -92 26 -215 101 -498 186 -698 212 -30 4
-66 8 -80 10 -67 9 -337 23 -343 18z m335 -178 c20 -3 64 -10 97 -16 34 -5 71
-12 83 -14 13 -2 43 -9 68 -16 25 -7 56 -14 70 -17 48 -8 265 -84 358 -125 74
-32 92 -44 86 -57 -4 -9 -13 -43 -21 -76 -62 -253 134 -515 395 -529 107 -5
229 34 298 95 20 19 21 18 79 -49 68 -78 184 -232 211 -281 30 -54 39 -68 51
-82 11 -14 107 -203 136 -269 49 -112 115 -317 137 -427 5 -26 12 -59 14 -72
43 -204 49 -544 14 -761 -5 -36 -12 -81 -15 -100 -8 -58 -52 -228 -88 -335
-46 -140 -118 -298 -198 -435 -26 -45 -158 -243 -166 -250 -4 -3 -37 -42 -73
-86 -37 -45 -116 -128 -176 -185 -517 -495 -1226 -731 -1932 -643 -92 11 -117
16 -230 41 -198 43 -353 99 -543 194 -477 240 -837 603 -1078 1089 -92 185
-163 396 -194 572 -3 17 -7 34 -9 37 -2 3 -7 33 -10 66 -4 33 -9 67 -11 75 -8
30 -16 178 -16 292 0 108 2 150 17 278 7 61 34 222 40 231 2 4 6 23 10 43 3
20 20 82 37 138 l32 101 58 3 c109 6 214 78 258 177 43 97 23 244 -42 313
l-20 21 93 124 c254 340 623 622 1023 782 97 38 283 97 355 111 236 46 322 54
555 50 116 -1 226 -5 247 -8z"/>
<path d="M3388 5105 c-2 -1 -30 -5 -63 -8 -33 -4 -85 -11 -115 -17 -30 -6 -68
-13 -83 -15 -58 -11 -246 -79 -331 -122 -428 -212 -732 -586 -855 -1052 -29
-108 -44 -232 -45 -371 -1 -120 9 -274 19 -289 2 -4 6 -24 9 -46 25 -163 126
-406 238 -575 260 -390 702 -660 1156 -707 126 -13 425 -4 454 13 3 2 19 6 35
8 59 7 172 40 268 77 557 217 946 715 1022 1309 13 101 7 350 -10 445 -26 138
-28 148 -33 157 -3 4 -7 16 -9 25 -10 56 -72 208 -120 301 -146 281 -375 517
-642 665 -240 132 -479 196 -755 202 -75 2 -138 2 -140 0z m332 -174 c114 -19
122 -21 231 -57 478 -154 846 -559 958 -1054 143 -633 -157 -1288 -730 -1594
-125 -67 -290 -126 -393 -142 -22 -3 -43 -7 -46 -9 -14 -9 -165 -19 -265 -18
-212 2 -425 54 -620 151 -389 193 -681 568 -769 988 -47 221 -42 452 14 670
64 248 191 466 385 659 282 282 638 426 1035 420 74 -1 164 -8 200 -14z"/>
</g>
</svg>
